{"glyphs":{"0":{"ha":713,"x_min":15,"x_max":697,"o":"m 356 945 q 484 923 430 945 q 575 863 538 901 q 637 774 613 824 q 674 665 661 723 q 692 547 688 608 q 697 427 697 485 q 692 308 697 369 q 674 190 688 247 q 636 81 660 132 q 575 -9 613 30 q 483 -69 537 -47 q 357 -92 430 -92 q 230 -69 283 -92 q 138 -9 176 -47 q 76 80 99 29 q 39 189 52 131 q 20 308 25 247 q 15 427 15 369 q 21 544 15 484 q 40 663 26 605 q 78 772 54 720 q 141 861 103 823 q 232 923 178 900 q 356 945 285 945 m 120 646 q 141 658 134 646 q 147 683 147 671 q 141 696 147 690 q 128 702 135 702 q 116 698 121 702 q 108 689 111 694 q 104 676 106 683 q 103 664 103 669 q 108 651 103 657 q 120 646 113 646 m 152 729 q 164 733 160 729 q 171 744 168 738 q 213 810 187 787 q 283 844 239 833 q 300 867 300 849 q 294 878 300 872 q 283 883 288 883 q 236 870 263 883 q 187 837 210 857 q 148 794 164 817 q 132 749 132 770 q 138 735 132 741 q 152 729 144 729 m 356 123 q 383 131 371 123 q 406 149 396 140 q 444 205 430 170 q 467 279 459 240 q 478 358 475 319 q 481 427 481 397 q 479 477 481 447 q 472 543 477 508 q 459 614 467 578 q 436 679 450 650 q 403 726 422 708 q 356 744 383 744 q 307 726 328 744 q 270 680 285 708 q 246 616 256 651 q 232 546 237 581 q 225 479 226 510 q 223 427 223 448 q 226 356 223 395 q 238 277 229 316 q 263 203 247 238 q 306 147 279 169 q 329 130 316 137 q 356 123 342 123 z "},"1":{"ha":462,"x_min":15,"x_max":423,"o":"m 423 762 q 415 672 423 716 q 397 583 406 627 q 378 494 387 539 q 370 403 370 449 q 374 338 370 370 q 383 272 378 305 q 396 207 389 240 q 410 142 403 175 q 415 115 413 128 q 417 87 417 101 q 404 19 417 51 q 369 -39 392 -14 q 316 -78 347 -64 q 247 -93 285 -93 q 183 -81 212 -93 q 135 -49 155 -69 q 104 1 115 -28 q 93 65 93 31 q 95 98 93 81 q 101 130 97 114 q 116 202 108 166 q 131 274 124 238 q 142 346 138 310 q 146 420 146 383 q 142 486 146 453 q 133 550 138 518 q 122 615 128 583 q 113 681 117 648 q 74 691 92 682 q 42 716 56 701 q 22 750 29 731 q 15 791 15 769 q 27 842 15 821 q 59 880 39 864 q 103 905 78 895 q 155 922 128 915 q 208 933 182 928 q 256 942 234 938 l 258 942 q 266 942 262 942 q 274 942 270 942 q 342 927 314 942 q 388 888 370 913 q 415 830 406 863 q 423 762 423 797 m 72 754 q 88 763 83 754 q 93 782 93 772 q 87 795 93 790 q 73 801 81 801 q 58 792 63 801 q 52 775 52 784 q 58 761 52 767 q 72 754 64 754 m 106 815 q 121 824 108 815 q 152 842 133 832 q 194 860 172 851 q 240 868 217 868 q 254 874 248 868 q 260 888 260 880 q 254 901 260 895 q 240 908 249 908 q 218 905 233 908 q 186 898 203 903 q 152 886 169 893 q 119 872 134 880 q 96 855 105 864 q 87 835 87 845 q 93 822 87 828 q 106 815 99 815 z "},"2":{"ha":742,"x_min":16,"x_max":726,"o":"m 594 234 q 645 224 621 234 q 687 197 669 214 q 716 156 705 180 q 726 106 726 133 q 717 56 726 80 q 694 10 708 31 q 638 -44 672 -24 q 565 -75 603 -65 q 485 -90 526 -86 q 407 -93 444 -93 q 321 -91 366 -93 q 233 -80 276 -88 q 150 -56 190 -72 q 81 -14 110 -40 q 34 50 51 12 q 16 142 16 89 q 35 236 16 193 q 84 315 53 278 q 154 382 115 351 q 234 440 193 413 q 314 491 275 467 q 384 539 353 515 q 433 586 415 563 q 452 634 452 609 q 446 667 452 651 q 430 693 440 682 q 405 711 419 704 q 372 717 390 717 q 338 708 351 717 q 312 685 324 699 q 289 656 300 672 q 262 626 277 640 q 225 603 247 612 q 172 594 203 594 q 118 604 143 594 q 76 632 94 614 q 48 675 58 650 q 38 728 38 699 q 52 799 38 765 q 91 859 66 833 q 152 905 119 888 q 219 931 184 922 q 291 941 253 939 q 366 944 328 944 l 415 944 q 523 928 471 944 q 617 881 576 912 q 683 803 658 849 q 708 697 708 757 q 693 616 708 655 q 653 542 678 578 q 595 475 628 507 q 526 415 562 443 q 455 363 491 387 q 388 318 419 338 q 355 297 373 308 q 320 271 336 285 q 293 240 304 257 q 283 202 283 223 q 292 169 283 183 q 315 147 301 156 q 347 134 329 138 q 381 131 364 131 q 430 138 409 131 q 467 157 451 146 q 497 182 483 169 q 525 207 511 196 q 556 226 540 219 q 594 234 573 234 m 111 735 q 122 739 117 735 q 130 748 126 742 q 135 759 133 753 q 137 770 137 765 q 131 784 137 778 q 117 790 125 790 q 107 786 112 790 q 99 777 102 783 q 93 766 95 772 q 92 756 92 760 q 97 741 92 747 q 111 735 103 735 m 153 806 q 169 815 163 806 q 196 838 183 830 q 222 851 209 847 q 251 857 235 855 q 285 862 266 859 q 303 883 303 865 q 299 895 303 889 q 287 901 294 901 q 247 896 273 901 q 196 881 222 891 q 152 858 171 872 q 133 826 133 844 q 139 812 133 818 q 153 806 145 806 z "},"3":{"ha":785,"x_min":23,"x_max":769,"o":"m 495 425 q 505 412 495 418 q 526 401 514 406 q 550 392 538 396 q 567 387 563 389 q 647 356 610 373 q 711 313 684 338 q 754 252 738 288 q 769 167 769 217 q 748 66 769 108 q 690 -5 726 24 q 606 -51 653 -34 q 508 -77 559 -68 q 406 -89 458 -86 q 311 -92 355 -92 q 255 -91 286 -92 q 192 -86 224 -90 q 129 -73 160 -81 q 75 -48 99 -64 q 37 -8 51 -32 q 23 52 23 17 q 33 105 23 81 q 61 147 43 129 q 103 175 79 165 q 156 185 128 185 q 209 176 185 185 q 255 156 233 167 q 298 136 277 145 q 342 127 319 127 q 381 131 358 127 q 427 144 405 135 q 464 168 449 153 q 480 201 480 182 q 465 245 480 227 q 429 275 451 263 q 382 292 407 286 q 336 297 357 297 q 295 294 316 297 q 255 291 275 291 q 153 324 191 291 q 115 422 115 356 q 126 478 115 454 q 155 519 136 503 q 199 544 173 536 q 255 553 224 553 q 275 552 265 553 q 296 551 285 551 q 345 557 317 551 q 399 575 374 563 q 442 606 424 587 q 459 652 459 625 q 450 678 459 668 q 428 693 441 688 q 400 700 415 698 q 372 701 385 701 q 316 691 342 701 q 262 669 289 681 q 208 647 235 657 q 151 637 181 637 q 104 647 125 637 q 68 674 83 657 q 46 714 53 691 q 38 762 38 737 q 47 814 38 788 q 69 863 55 840 q 115 908 89 892 q 170 933 141 925 q 232 944 200 942 q 296 946 264 946 q 390 942 341 946 q 488 929 440 939 q 579 900 535 919 q 655 852 622 882 q 708 781 688 823 q 727 681 727 739 q 710 594 727 630 q 667 534 693 559 q 611 494 641 510 q 555 467 581 478 q 512 446 529 456 q 495 425 495 437 m 105 744 q 115 748 110 744 q 123 758 119 752 q 128 769 126 763 q 130 781 130 776 q 124 795 130 789 q 110 801 118 801 q 91 788 97 801 q 85 765 85 775 q 91 750 85 756 q 105 744 97 744 m 143 816 q 157 824 147 816 q 182 843 167 833 q 219 861 198 853 q 268 869 241 869 q 279 870 273 869 q 290 872 285 870 q 298 876 294 873 q 301 887 301 880 q 291 906 301 902 q 269 909 282 909 q 232 904 256 909 q 183 890 207 899 q 141 867 159 881 q 124 835 124 853 q 130 822 124 828 q 143 816 135 816 z "},"4":{"ha":799,"x_min":24,"x_max":760,"o":"m 760 765 q 751 673 760 718 q 729 583 741 628 q 707 493 717 538 q 697 401 697 448 q 701 335 697 367 q 713 271 706 303 q 727 207 719 239 q 744 144 735 176 q 750 114 747 128 q 752 83 752 99 q 739 15 752 47 q 702 -41 726 -17 q 648 -79 679 -65 q 581 -93 617 -93 q 518 -82 547 -93 q 469 -50 490 -70 q 436 -1 448 -29 q 424 62 424 28 q 432 132 424 97 q 450 203 440 167 q 469 274 460 238 q 484 344 479 309 q 384 332 434 338 q 283 326 333 326 q 186 332 233 326 q 103 356 139 338 q 45 411 67 375 q 24 510 24 448 q 28 581 24 546 q 32 652 32 617 q 29 711 32 682 q 26 770 26 741 q 33 837 26 806 q 55 892 40 868 q 97 929 71 915 q 164 943 124 943 q 227 931 201 943 q 271 898 253 919 q 297 848 288 877 q 305 785 305 819 q 296 715 305 749 q 276 649 287 681 q 257 585 266 616 q 248 523 248 553 q 259 497 248 506 q 285 483 270 488 q 318 478 301 479 q 346 477 335 477 q 385 478 363 477 q 427 486 407 480 q 460 506 447 493 q 474 543 474 519 q 468 598 474 571 q 456 651 463 624 q 443 704 449 677 q 438 758 438 731 q 448 832 438 799 q 481 891 459 866 q 534 929 502 915 q 608 943 565 943 q 675 928 647 943 q 723 890 704 914 q 751 833 742 865 q 760 765 760 800 m 114 603 q 108 617 114 611 q 94 624 103 624 q 83 620 87 624 q 76 612 78 617 q 74 601 74 607 q 74 590 74 595 q 78 571 74 579 q 94 563 83 563 q 111 574 108 563 q 114 594 114 584 l 114 603 m 110 763 q 118 812 110 796 q 134 836 125 828 q 150 849 143 844 q 158 863 158 853 q 152 876 158 870 q 138 882 147 882 q 107 869 119 882 q 86 837 94 856 q 74 798 78 819 q 71 763 71 778 q 73 721 71 742 q 76 678 75 699 q 82 665 77 670 q 96 659 87 659 q 110 665 103 659 q 116 678 116 671 q 113 721 116 700 q 110 763 110 742 m 516 621 q 531 627 524 621 q 537 641 537 633 q 536 653 537 647 q 533 667 535 660 q 526 677 531 673 q 514 681 522 681 q 500 675 506 681 q 494 661 494 669 q 495 649 494 656 q 498 635 496 642 q 504 625 500 629 q 516 621 508 621 m 526 726 q 525 760 526 742 q 526 794 524 778 q 538 823 528 810 q 566 843 547 835 q 581 864 581 849 q 574 877 581 872 q 560 883 567 883 q 523 869 538 883 q 499 834 508 855 q 487 791 490 814 q 483 751 483 769 q 484 738 483 746 q 486 724 484 731 q 493 712 488 717 q 506 707 497 707 q 519 712 513 707 q 526 726 526 717 z "},"5":{"ha":731,"x_min":15,"x_max":715,"o":"m 312 657 q 329 612 312 633 q 375 571 347 591 q 439 531 403 551 q 513 488 476 511 q 587 437 551 465 q 652 374 624 409 q 697 295 680 339 q 715 196 715 251 q 683 75 715 128 q 602 -16 652 22 q 490 -73 552 -53 q 367 -93 428 -93 q 272 -89 322 -93 q 176 -69 222 -84 q 93 -27 131 -55 q 33 49 56 1 q 20 87 25 67 q 15 127 15 107 q 25 184 15 157 q 52 232 35 211 q 95 265 70 253 q 152 278 121 278 q 216 266 193 278 q 253 236 240 254 q 275 197 267 218 q 294 158 283 176 q 322 128 304 140 q 372 117 339 117 q 407 120 390 117 q 440 131 425 123 q 463 153 454 139 q 472 188 472 167 q 453 244 472 217 q 408 295 435 271 q 352 341 381 320 q 302 376 323 361 q 261 402 282 391 q 217 426 240 414 q 135 476 169 451 q 80 532 101 501 q 50 603 59 563 q 40 700 40 644 q 56 796 40 756 q 100 863 72 836 q 165 906 128 890 q 244 931 202 922 q 332 942 287 940 q 420 944 377 944 q 478 943 447 944 q 541 937 509 942 q 602 923 572 932 q 655 896 632 913 q 691 854 677 879 q 705 792 705 828 q 695 746 705 768 q 668 707 685 724 q 629 680 651 690 q 583 670 607 670 q 536 678 558 670 q 491 694 513 685 q 446 710 469 703 q 399 718 424 718 q 369 715 385 718 q 341 706 353 713 q 320 687 328 699 q 312 657 312 675 m 142 745 q 146 753 144 749 q 149 763 149 758 q 143 776 149 770 q 129 782 137 782 q 110 770 117 782 q 103 747 103 758 q 109 733 103 739 q 123 727 115 727 q 136 732 131 727 q 142 745 142 737 m 169 799 q 183 807 172 799 q 212 825 194 815 q 253 843 230 835 q 304 851 277 851 q 316 851 310 851 q 327 852 322 851 q 335 857 332 853 q 339 869 339 861 q 336 881 339 877 q 327 888 333 885 q 316 890 322 890 q 303 890 309 890 q 264 885 290 890 q 213 871 238 881 q 168 848 187 862 q 149 818 149 835 q 155 805 149 810 q 169 799 161 799 z "},"6":{"ha":785,"x_min":15,"x_max":769,"o":"m 494 519 q 599 501 549 519 q 686 449 649 483 q 747 369 724 416 q 769 266 769 323 q 743 133 769 197 q 669 20 716 69 q 561 -58 623 -29 q 428 -87 499 -87 q 285 -58 354 -87 q 161 22 215 -28 q 94 105 122 60 q 49 200 66 150 q 23 304 31 251 q 15 410 15 358 q 24 518 15 465 q 53 622 33 572 q 115 739 76 683 q 207 840 155 796 q 320 911 258 885 q 451 938 383 938 q 503 936 475 938 q 560 927 531 933 q 615 911 588 922 q 662 884 642 901 q 695 844 683 867 q 707 789 707 820 q 696 732 707 757 q 666 689 685 706 q 620 661 647 671 q 563 652 594 652 q 531 655 547 652 q 500 662 515 658 q 468 668 484 665 q 436 672 452 672 q 365 659 399 672 q 307 623 332 646 q 267 568 282 600 q 253 497 253 536 q 254 475 253 486 q 263 453 255 463 q 275 456 269 453 q 286 463 281 459 q 386 505 337 491 q 494 519 435 519 m 142 618 q 153 622 148 618 q 162 633 158 626 q 168 645 166 639 q 171 657 171 652 q 165 670 171 665 q 151 676 159 676 q 140 672 145 676 q 131 662 135 668 q 125 650 127 656 q 122 638 122 643 q 128 624 122 630 q 142 618 135 618 m 210 716 q 220 719 216 716 q 227 726 224 722 q 269 772 244 749 q 323 811 294 794 q 383 840 352 829 q 443 851 414 851 q 457 857 451 851 q 463 870 463 863 q 457 884 463 878 q 443 890 451 890 q 403 884 426 890 q 353 867 379 878 q 301 843 327 857 q 253 813 275 828 q 215 780 231 797 q 192 746 199 763 q 191 741 192 744 q 190 736 190 738 q 196 722 190 728 q 210 716 202 716 m 403 140 q 443 144 422 140 q 483 158 465 148 q 513 183 501 167 q 524 223 524 199 q 515 258 524 244 q 491 280 506 272 q 459 292 476 288 q 424 296 441 296 q 385 293 410 296 q 335 282 360 290 q 291 263 310 275 q 273 231 273 250 q 286 192 273 209 q 319 163 299 175 q 361 145 339 151 q 403 140 384 140 z "},"7":{"ha":695,"x_min":16,"x_max":679,"o":"m 16 789 q 30 848 16 824 q 67 890 44 873 q 119 917 90 907 q 181 932 149 926 q 243 938 212 937 q 299 940 274 940 q 377 939 335 940 q 462 932 419 938 q 543 913 504 926 q 613 878 583 901 q 661 822 643 856 q 679 738 679 788 q 660 639 679 688 q 611 541 640 590 q 547 443 581 492 q 484 346 513 394 q 435 248 454 297 q 415 149 415 199 q 416 129 415 139 q 417 109 417 119 q 403 32 417 69 q 365 -34 390 -6 q 306 -79 341 -62 q 229 -96 272 -96 q 165 -84 194 -96 q 116 -52 136 -73 q 84 -1 95 -31 q 74 63 74 28 q 96 174 74 125 q 151 267 118 224 q 223 349 184 310 q 295 427 262 388 q 350 511 328 467 q 372 608 372 555 q 371 638 372 624 q 365 663 370 652 q 348 679 359 673 q 317 685 337 685 q 275 681 295 685 q 233 672 254 676 q 192 663 213 667 q 150 659 172 659 q 51 691 86 659 q 16 789 16 724 m 83 760 q 92 763 88 760 q 100 771 97 766 q 106 781 103 776 q 108 791 108 787 q 101 805 108 799 q 88 810 95 810 q 69 799 76 810 q 63 778 63 788 q 69 765 63 770 q 83 760 75 760 m 253 854 q 268 853 259 854 q 288 852 278 852 q 309 856 299 852 q 318 871 318 859 q 314 884 318 879 q 303 890 309 888 q 289 893 297 892 q 276 894 282 894 q 251 893 267 894 q 216 890 235 892 q 179 884 198 888 q 145 874 160 881 q 119 859 129 868 q 110 839 110 851 q 116 825 110 831 q 129 819 122 819 q 144 826 136 819 q 195 850 167 845 q 253 854 224 854 z "},"8":{"ha":778,"x_min":15,"x_max":763,"o":"m 648 427 q 701 383 679 408 q 737 328 723 358 q 757 265 751 298 q 763 196 763 231 q 732 56 763 112 q 649 -33 701 1 q 529 -80 597 -66 q 389 -93 461 -93 q 247 -81 315 -93 q 128 -36 179 -68 q 46 53 76 -3 q 15 196 15 109 q 42 326 15 267 q 130 425 68 386 q 42 525 68 464 q 15 656 15 585 q 47 796 15 740 q 130 885 78 851 q 249 932 182 918 q 389 945 317 945 q 532 933 464 945 q 651 888 599 920 q 733 799 702 856 q 763 656 763 743 q 736 526 763 585 q 648 427 710 466 m 96 645 q 115 658 110 645 q 120 682 120 670 q 114 696 120 690 q 101 702 108 702 q 89 698 94 702 q 82 689 85 694 q 79 677 80 683 q 78 665 78 671 q 83 651 78 658 q 96 645 88 645 m 123 726 q 135 730 131 726 q 142 740 140 734 q 168 780 153 765 q 197 805 182 795 q 225 819 211 814 q 251 828 240 824 q 268 838 262 833 q 275 852 275 843 q 268 865 275 860 q 253 869 260 869 q 207 857 233 869 q 158 828 181 846 q 119 788 135 810 q 103 745 103 766 q 109 732 103 738 q 123 726 115 726 m 389 785 q 341 774 364 785 q 300 745 317 763 q 272 705 283 728 q 262 656 262 681 q 269 599 262 627 q 293 550 277 572 q 332 515 308 528 q 389 501 356 501 q 444 515 422 501 q 482 551 467 528 q 503 601 497 573 q 510 656 510 628 q 501 705 510 682 q 476 746 492 728 q 438 774 460 764 q 389 785 415 785 m 389 67 q 437 77 414 67 q 478 106 460 88 q 506 148 496 124 q 517 196 517 171 q 509 253 517 225 q 486 303 501 281 q 446 338 470 324 q 389 351 422 351 q 334 337 357 351 q 297 301 312 323 q 276 251 283 278 q 269 196 269 224 q 278 147 269 171 q 303 106 287 124 q 341 77 319 88 q 389 67 363 67 z "},"9":{"ha":785,"x_min":16,"x_max":769,"o":"m 356 938 q 500 909 431 938 q 624 828 569 879 q 692 745 664 791 q 737 649 719 699 q 762 544 754 598 q 769 437 769 490 q 761 331 769 383 q 733 228 752 278 q 670 111 710 167 q 579 10 631 54 q 465 -61 527 -34 q 335 -87 403 -87 q 282 -85 310 -87 q 226 -77 254 -83 q 170 -60 197 -71 q 123 -33 144 -49 q 91 7 103 -16 q 78 63 78 31 q 90 120 78 94 q 120 163 101 145 q 166 189 140 180 q 223 199 192 199 q 254 195 239 199 q 285 189 269 192 q 316 182 301 185 q 347 178 331 178 q 424 198 390 178 q 483 247 458 217 q 521 316 508 278 q 535 394 535 355 q 535 399 535 395 q 534 406 535 403 q 532 413 533 410 q 528 415 531 415 q 508 410 517 415 q 489 399 499 404 q 384 353 438 369 q 270 336 329 336 q 172 355 218 336 q 91 408 126 374 q 36 487 56 442 q 16 585 16 533 q 43 718 16 654 q 116 831 69 782 q 224 909 162 880 q 356 938 286 938 m 114 648 q 132 661 126 648 q 138 684 138 674 q 132 698 138 692 q 117 704 126 704 q 107 700 111 704 q 99 691 102 697 q 95 679 97 685 q 94 667 94 673 q 100 653 94 659 q 114 648 106 648 m 146 726 q 158 730 153 726 q 165 740 163 734 q 186 777 175 763 q 210 801 197 792 q 241 816 224 810 q 281 829 258 822 q 293 835 288 831 q 298 847 298 839 q 276 869 298 869 q 231 857 256 869 q 182 828 205 846 q 142 788 158 810 q 126 745 126 766 q 132 732 126 738 q 146 726 138 726 m 510 604 q 512 611 512 608 q 512 619 512 615 q 499 658 512 641 q 466 687 485 675 q 423 705 446 699 q 382 710 401 710 q 342 706 363 710 q 302 693 321 702 q 272 667 284 683 q 260 628 260 651 q 270 593 260 608 q 294 570 279 579 q 327 558 309 562 q 363 554 346 554 q 400 557 379 554 q 443 566 422 560 q 483 581 465 572 q 510 604 501 590 z "},"\u0000":{"ha":0,"x_min":0,"x_max":0,"o":""},"\r":{"ha":347,"x_min":0,"x_max":0,"o":""}," ":{"ha":361,"x_min":0,"x_max":0,"o":""},"&":{"ha":797,"x_min":15,"x_max":781,"o":"m 671 355 q 721 345 700 355 q 755 319 742 336 q 774 280 768 303 q 781 230 781 257 q 774 170 781 200 q 755 113 767 141 q 725 59 742 85 q 687 13 708 34 q 701 -19 695 -3 q 708 -54 708 -36 q 701 -81 708 -69 q 685 -100 695 -92 q 662 -112 675 -108 q 635 -117 649 -117 q 583 -105 608 -117 q 538 -76 558 -92 q 473 -89 506 -85 q 406 -93 440 -93 q 322 -91 367 -93 q 234 -80 277 -88 q 151 -56 190 -72 q 81 -15 111 -41 q 33 48 51 10 q 15 139 15 86 q 32 223 15 182 q 74 301 48 264 q 131 372 99 339 q 192 432 163 405 q 164 494 179 460 q 135 564 149 528 q 114 635 122 600 q 106 702 106 671 q 132 813 106 767 q 200 888 158 858 q 297 931 242 917 q 408 944 351 944 q 505 927 460 944 q 582 879 549 910 q 632 805 614 848 q 650 708 650 761 q 634 607 650 651 q 592 525 619 563 q 528 456 565 488 q 450 392 492 424 l 442 385 q 500 302 469 342 q 554 218 530 263 q 565 268 558 244 q 586 312 573 293 q 620 343 600 331 q 671 355 641 355 m 203 596 q 217 602 212 596 q 223 615 223 608 q 217 634 223 625 q 201 642 212 642 q 188 636 194 642 q 181 622 181 631 q 187 604 181 613 q 203 596 193 596 m 196 713 q 206 762 196 744 q 229 792 217 781 q 252 810 242 803 q 263 825 263 817 q 256 839 263 833 q 242 844 249 844 q 207 829 223 844 q 181 794 192 815 q 163 752 169 774 q 157 714 157 730 q 158 698 157 708 q 161 680 158 689 q 169 665 164 672 q 183 659 174 659 q 196 664 190 659 q 202 678 202 669 q 199 695 202 687 q 196 713 196 703 m 269 161 q 281 120 269 135 q 312 95 293 104 q 353 83 331 86 q 395 80 375 80 l 403 80 q 348 160 374 119 q 296 242 322 201 q 276 204 284 224 q 269 161 269 183 m 347 550 q 380 573 362 560 q 413 601 397 585 q 438 634 428 616 q 449 672 449 651 q 428 725 449 705 q 374 746 407 746 q 326 727 344 746 q 308 678 308 709 q 320 612 308 645 q 347 550 333 579 z "},",":{"ha":262,"x_min":16,"x_max":247,"o":"m 131 123 q 177 113 156 123 q 214 85 199 102 q 238 45 229 68 q 247 -1 247 23 q 240 -41 247 -18 q 221 -89 233 -64 q 194 -138 210 -113 q 160 -182 178 -162 q 123 -213 142 -201 q 85 -225 104 -225 q 49 -209 64 -225 q 33 -171 33 -192 q 39 -149 33 -158 q 53 -132 44 -140 q 70 -116 61 -124 q 87 -101 80 -109 q 57 -87 70 -97 q 35 -65 44 -78 q 21 -37 26 -52 q 16 -5 16 -22 q 24 43 16 19 q 48 84 33 66 q 84 112 63 101 q 131 123 105 123 m 69 -1 q 82 9 78 -1 q 91 31 86 19 q 103 53 95 43 q 128 63 111 63 q 139 67 135 63 q 143 78 143 72 q 139 88 143 84 q 128 92 135 92 q 100 86 114 92 q 77 68 87 79 q 61 43 67 57 q 56 15 56 30 q 59 5 56 10 q 69 -1 63 -1 z "},".":{"ha":358,"x_min":74,"x_max":284,"o":"m 181 126 q 256 98 228 126 q 284 24 284 70 q 277 -24 284 -1 q 258 -65 271 -47 q 225 -94 244 -83 q 178 -105 205 -105 q 137 -98 156 -105 q 104 -77 118 -90 q 82 -45 90 -63 q 74 -3 74 -26 q 82 41 74 18 q 103 83 90 64 q 138 114 117 102 q 181 126 158 126 m 127 -1 q 141 9 137 -1 q 149 31 144 19 q 161 53 153 43 q 186 63 169 63 q 197 67 192 63 q 201 78 201 72 q 197 88 201 84 q 186 92 192 92 q 158 86 172 92 q 135 68 145 79 q 119 43 125 57 q 113 15 113 29 q 117 5 113 10 q 127 -1 121 -1 z "},"A":{"ha":797,"x_min":16,"x_max":782,"o":"m 644 566 q 648 463 644 515 q 664 359 653 410 q 692 260 674 308 q 738 167 710 211 q 768 107 755 138 q 782 42 782 77 q 767 -16 782 9 q 727 -59 751 -42 q 673 -85 703 -76 q 613 -94 642 -94 q 556 -81 581 -94 q 514 -47 531 -68 q 488 2 497 -26 q 479 60 479 30 q 480 96 479 74 q 479 143 480 118 q 474 193 478 168 q 462 238 470 218 q 439 271 453 258 q 403 284 425 284 q 353 261 371 284 q 326 207 335 239 q 315 142 317 176 q 312 85 313 108 q 304 15 310 48 q 282 -41 297 -17 q 239 -79 266 -65 q 168 -93 211 -93 q 109 -86 137 -93 q 60 -64 81 -79 q 28 -24 40 -49 q 16 35 16 1 q 24 93 16 65 q 44 149 33 122 q 88 256 67 201 q 123 367 108 310 q 147 480 138 423 q 156 596 156 538 q 153 654 156 625 q 149 712 149 683 q 168 813 149 769 q 220 885 187 856 q 300 929 253 915 q 401 944 346 944 q 585 887 519 944 q 650 708 650 830 q 647 637 650 672 q 644 566 644 601 m 235 608 q 229 621 235 616 q 215 626 222 626 q 201 621 207 626 q 196 608 196 615 l 196 583 q 202 569 196 575 q 216 564 208 564 q 230 569 224 564 q 235 583 235 575 l 235 608 m 217 672 q 232 678 226 672 q 238 693 238 684 q 242 740 238 717 q 256 783 246 763 q 281 819 265 803 q 321 844 297 835 q 332 851 327 847 q 338 863 338 856 q 332 877 338 871 q 318 884 326 884 q 270 865 292 884 q 232 818 248 846 q 206 761 215 791 q 197 708 197 731 q 198 697 197 703 q 200 685 198 690 q 206 676 201 679 q 217 672 210 672 m 403 487 q 429 495 419 487 q 445 516 439 503 q 453 542 451 528 q 455 569 455 556 q 452 596 455 578 q 444 632 450 614 q 429 663 438 649 q 408 676 420 676 q 385 661 395 676 q 369 627 376 647 q 360 588 363 608 q 357 559 357 569 q 359 535 357 548 q 366 511 360 522 q 380 494 371 501 q 403 487 389 487 z "},"B":{"ha":763,"x_min":39,"x_max":747,"o":"m 497 426 q 505 415 497 420 q 524 406 513 410 q 544 399 534 402 q 560 395 555 397 q 638 366 603 383 q 697 325 673 350 q 734 266 722 301 q 747 183 747 232 q 730 84 747 126 q 684 11 713 42 q 616 -39 655 -19 q 532 -70 576 -58 q 440 -86 488 -81 q 347 -90 393 -90 q 313 -90 330 -90 q 278 -88 295 -89 q 218 -85 247 -87 q 162 -80 188 -84 q 113 -66 135 -75 q 74 -40 90 -57 q 48 5 58 -22 q 39 71 39 31 q 43 114 39 93 q 51 156 47 135 q 68 269 62 213 q 74 385 74 326 q 69 473 74 429 q 59 560 65 517 q 48 648 53 604 q 43 736 43 692 q 58 823 43 788 q 99 882 73 858 q 159 917 124 905 q 232 936 193 930 q 311 943 271 942 q 391 944 352 944 q 510 930 453 944 q 611 886 567 917 q 682 808 656 856 q 708 689 708 759 q 699 604 708 641 q 668 539 689 567 q 616 490 648 511 q 540 453 585 469 q 529 449 536 451 q 515 443 522 447 q 502 436 508 440 q 497 426 497 432 m 144 564 q 158 569 152 564 q 163 583 163 575 q 163 596 163 588 q 159 610 162 603 q 152 622 157 617 q 140 626 148 626 q 126 620 132 626 q 120 607 120 615 q 121 593 120 601 q 125 579 122 585 q 132 568 127 573 q 144 564 137 564 m 152 692 q 152 722 152 708 q 154 750 152 736 q 161 777 156 764 q 177 804 167 791 q 196 818 183 812 q 221 831 208 825 q 244 844 234 838 q 253 856 253 850 q 247 870 253 864 q 233 876 240 876 q 180 861 203 876 q 142 822 157 846 q 118 771 126 799 q 110 717 110 743 q 111 703 110 710 q 113 689 111 695 q 120 677 115 682 q 133 672 124 672 q 146 678 140 672 q 152 692 152 684 m 372 706 q 338 703 353 706 q 313 694 323 701 q 297 675 302 688 q 291 640 291 662 q 293 614 291 624 q 300 598 295 604 q 316 590 306 592 q 341 588 326 588 q 375 592 354 588 q 414 603 395 596 q 447 624 433 611 q 461 653 461 636 q 452 680 461 669 q 430 695 443 690 q 400 703 416 701 q 372 706 385 706 m 344 128 q 383 133 360 128 q 429 146 407 137 q 466 169 451 155 q 482 203 482 183 q 467 235 482 222 q 432 258 453 249 q 390 271 412 267 q 353 276 368 276 q 319 270 332 276 q 298 253 306 264 q 288 227 290 242 q 285 193 285 212 q 287 163 285 175 q 296 143 290 151 q 314 132 302 135 q 344 128 326 128 z "},"C":{"ha":772,"x_min":15,"x_max":756,"o":"m 622 311 q 678 298 653 311 q 721 261 703 284 q 747 210 738 239 q 756 153 756 182 q 728 49 756 92 q 656 -24 700 5 q 557 -66 611 -52 q 451 -80 503 -80 q 372 -72 411 -80 q 297 -48 333 -63 q 226 -10 260 -32 q 164 38 192 12 q 96 120 124 75 q 50 215 68 165 q 24 318 32 265 q 15 424 15 371 q 25 528 15 476 q 54 629 34 580 q 122 748 79 691 q 218 849 164 805 q 338 919 273 893 q 472 946 402 946 q 524 943 496 946 q 581 935 552 941 q 636 919 609 929 q 683 892 663 908 q 716 851 703 875 q 728 797 728 828 q 717 739 728 765 q 686 696 706 714 q 641 669 667 678 q 583 660 615 660 q 555 663 569 660 q 526 668 540 665 q 499 674 513 672 q 470 677 485 677 q 402 664 432 677 q 350 627 372 650 q 312 574 328 604 q 286 511 296 544 q 272 443 276 478 q 267 378 267 409 q 269 326 267 351 q 279 277 272 301 q 300 233 286 254 q 338 196 314 213 q 371 177 353 185 q 408 170 388 170 q 453 181 435 170 q 486 207 472 191 q 512 241 500 222 q 539 275 524 259 q 573 301 553 290 q 622 311 592 311 m 156 631 q 166 635 161 631 q 175 646 172 640 q 182 659 179 652 q 184 670 184 665 q 178 684 184 678 q 164 690 172 690 q 153 686 158 690 q 144 676 148 682 q 138 663 140 669 q 136 651 136 656 q 142 638 136 644 q 156 631 147 631 m 224 730 q 240 740 233 730 q 284 785 259 763 q 336 825 308 807 q 395 853 365 842 q 456 864 426 864 q 470 870 465 864 q 476 884 476 876 q 470 898 476 892 q 456 903 464 903 q 415 897 439 903 q 366 881 392 891 q 315 856 341 870 q 267 826 289 842 q 229 793 245 810 q 206 759 213 776 q 205 754 206 758 q 203 749 203 751 q 210 735 203 741 q 224 730 216 730 z "},"D":{"ha":783,"x_min":39,"x_max":767,"o":"m 320 944 q 401 929 357 944 q 489 891 445 914 q 570 840 532 868 q 634 787 609 813 q 736 624 704 715 q 767 433 767 533 q 729 222 767 319 q 622 55 691 125 q 457 -55 553 -15 q 244 -94 360 -94 q 167 -87 204 -94 q 101 -64 130 -81 q 56 -16 73 -47 q 39 63 39 15 q 42 98 39 81 q 49 132 44 115 q 68 201 58 167 q 85 271 77 236 q 98 342 93 306 q 103 414 103 378 q 95 506 103 461 q 77 595 87 551 q 60 679 68 638 q 52 759 52 720 q 66 846 52 810 q 106 903 80 881 q 170 935 133 925 q 257 944 208 944 l 320 944 m 162 553 q 175 559 169 553 q 181 572 181 565 q 181 584 181 578 q 177 596 180 591 q 171 605 175 601 q 159 608 167 608 q 146 602 151 608 q 140 588 140 596 q 144 565 140 577 q 162 553 149 553 m 225 853 l 235 853 q 252 856 244 853 q 260 873 260 859 q 248 890 260 887 q 226 894 237 894 q 182 885 202 894 q 147 861 162 876 q 125 825 133 846 q 117 781 117 805 q 117 764 117 776 q 119 738 117 752 q 122 708 120 724 q 128 681 124 693 q 137 661 132 669 q 149 653 142 653 q 163 659 157 653 q 169 672 169 665 q 163 726 169 700 q 156 781 156 753 q 174 833 156 812 q 225 853 192 853 m 360 192 q 415 205 390 192 q 458 236 439 217 q 492 283 478 256 q 516 337 507 309 q 531 394 526 365 q 535 447 535 422 q 525 520 535 481 q 493 591 514 558 q 441 644 472 623 q 369 665 410 665 q 359 665 365 665 q 349 663 354 664 q 331 642 339 658 q 316 603 322 626 q 307 553 310 580 q 301 500 303 526 q 298 454 299 475 q 297 422 297 433 q 297 391 297 412 q 300 344 298 369 q 307 292 302 319 q 318 243 311 265 q 335 207 325 221 q 360 192 346 192 z "},"E":{"ha":678,"x_min":39,"x_max":663,"o":"m 552 156 q 597 148 577 156 q 632 124 617 139 q 655 87 647 108 q 663 42 663 66 q 641 -18 663 6 q 585 -57 619 -42 q 507 -80 550 -72 q 422 -91 465 -87 q 342 -94 379 -94 q 280 -94 304 -94 q 232 -94 256 -94 q 183 -92 208 -94 q 125 -77 151 -89 q 79 -45 98 -65 q 49 2 60 -25 q 39 63 39 29 q 42 98 39 81 q 49 132 44 115 q 68 202 59 167 q 86 272 78 237 q 99 343 94 307 q 103 415 103 378 q 92 538 103 478 q 66 659 81 599 q 57 706 60 683 q 53 754 53 730 q 66 831 53 800 q 101 883 79 863 q 154 915 124 903 q 218 932 184 926 q 288 938 251 937 q 358 939 324 939 q 412 938 381 939 q 478 934 444 938 q 545 922 512 930 q 605 898 578 913 q 647 861 631 883 q 663 805 663 838 q 653 753 663 777 q 625 710 643 728 q 584 682 608 692 q 531 672 560 672 q 487 679 508 672 q 444 694 465 686 q 402 710 423 703 q 358 717 381 717 q 330 701 340 717 q 317 661 321 684 q 313 615 313 638 q 313 580 313 592 q 313 561 313 573 q 316 536 313 549 q 324 516 319 524 q 340 507 330 507 q 361 512 349 507 q 386 523 372 517 q 416 534 400 529 q 449 540 432 540 q 534 515 502 540 q 567 435 567 491 q 559 388 567 410 q 536 350 551 366 q 501 325 522 334 q 454 315 480 315 q 422 320 438 315 q 390 332 406 326 q 359 343 374 338 q 327 348 343 348 q 311 335 317 348 q 302 305 305 322 q 299 271 299 288 q 299 247 299 254 q 299 208 299 232 q 305 159 300 183 q 322 118 310 135 q 354 101 333 101 q 405 109 381 101 q 453 128 429 118 q 501 148 477 139 q 552 156 526 156 m 163 566 q 176 572 170 566 q 183 585 183 577 q 182 597 183 590 q 178 611 181 604 q 172 622 176 617 q 160 626 167 626 q 145 621 152 626 q 139 606 139 615 q 140 594 139 601 q 144 581 141 587 q 151 570 147 574 q 163 566 156 566 m 284 861 q 273 880 284 877 q 249 883 262 883 q 199 877 223 883 q 157 857 175 870 q 127 822 138 843 q 117 772 117 801 q 118 748 117 765 q 124 714 120 731 q 134 684 127 697 q 149 671 140 671 q 163 677 157 671 q 169 691 169 683 q 163 731 169 711 q 156 771 156 750 q 165 808 156 794 q 189 830 174 822 q 221 841 203 838 q 258 844 239 844 q 276 847 267 844 q 284 861 284 849 z "},"F":{"ha":695,"x_min":38,"x_max":680,"o":"m 386 947 q 443 947 411 947 q 507 942 474 946 q 571 930 540 938 q 626 905 602 921 q 665 865 650 890 q 680 805 680 841 q 669 753 680 777 q 641 712 659 730 q 600 684 624 694 q 548 674 576 674 q 501 682 524 674 q 456 700 478 690 q 411 717 433 709 q 364 724 388 724 q 339 715 348 724 q 326 693 331 706 q 321 666 322 681 q 320 640 320 651 q 321 610 320 628 q 323 572 322 592 q 328 536 325 553 q 338 511 332 519 l 341 510 q 361 515 349 510 q 386 525 372 519 q 416 535 400 531 q 449 540 432 540 q 534 515 501 540 q 567 434 567 490 q 558 388 567 409 q 535 350 550 366 q 499 325 520 334 q 453 315 478 315 q 424 319 438 315 q 396 328 410 324 q 368 338 382 333 q 340 342 355 342 q 326 338 333 342 q 324 325 324 333 q 331 261 324 292 q 347 198 338 229 q 362 134 355 166 q 369 69 369 103 q 356 -3 369 27 q 318 -53 342 -34 q 261 -82 294 -73 q 188 -92 227 -92 q 126 -80 153 -92 q 79 -48 99 -69 q 49 0 60 -28 q 38 62 38 28 q 41 97 38 80 q 49 132 44 115 q 68 201 58 167 q 85 271 77 236 q 98 342 93 306 q 103 415 103 378 q 91 538 103 477 q 65 659 80 598 q 56 706 60 683 q 52 754 52 730 q 67 833 52 801 q 108 887 82 865 q 167 920 133 908 q 238 939 201 933 q 313 946 274 944 q 386 947 351 947 m 161 566 q 175 572 169 566 q 181 585 181 577 q 180 597 181 590 q 177 611 179 604 q 170 622 174 617 q 159 626 166 626 q 144 621 151 626 q 138 606 138 615 q 138 594 138 601 q 142 581 139 587 q 149 570 144 574 q 161 566 153 566 m 281 861 q 269 880 281 877 q 246 883 258 883 q 196 877 220 883 q 154 858 172 871 q 125 824 136 844 q 114 774 114 803 q 115 749 114 766 q 120 714 117 732 q 130 683 124 697 q 146 670 136 670 q 159 675 153 670 q 165 688 165 681 q 159 731 165 710 q 153 773 153 751 q 163 809 153 795 q 186 831 172 823 q 218 841 200 838 q 254 844 236 844 q 272 847 264 844 q 281 861 281 849 z "},"G":{"ha":807,"x_min":16,"x_max":792,"o":"m 572 508 q 661 490 621 508 q 731 441 702 472 q 776 368 760 410 q 792 278 792 326 q 765 144 792 209 q 693 30 739 79 q 584 -50 647 -20 q 451 -80 522 -80 q 372 -72 411 -80 q 297 -48 333 -63 q 226 -10 260 -32 q 165 38 193 11 q 96 121 124 76 q 50 216 68 166 q 24 319 33 266 q 16 426 16 372 q 25 529 16 478 q 54 629 35 581 q 122 748 79 691 q 218 849 164 805 q 338 919 273 893 q 472 946 402 946 q 524 943 496 946 q 581 935 553 941 q 636 918 610 929 q 683 891 663 908 q 716 851 703 874 q 728 796 728 828 q 717 739 728 764 q 686 696 706 713 q 640 669 667 678 q 583 660 614 660 q 555 663 569 660 q 527 668 541 665 q 499 674 513 672 q 470 677 485 677 q 403 664 433 677 q 351 627 373 650 q 313 575 328 605 q 287 512 297 545 q 273 445 277 479 q 268 380 268 410 q 274 299 268 340 q 297 224 280 258 q 344 169 313 190 q 424 147 374 147 q 469 153 447 147 q 510 171 492 159 q 540 202 528 183 q 551 248 551 222 q 541 274 551 265 q 517 288 531 282 q 486 298 503 293 q 455 311 469 302 q 431 335 440 319 q 421 378 421 351 q 433 435 421 410 q 467 475 446 459 q 515 500 488 492 q 572 508 542 508 m 186 647 q 193 658 190 653 q 196 670 196 664 q 190 684 196 678 q 176 690 184 690 q 165 686 170 690 q 156 676 160 682 q 150 663 152 669 q 147 651 147 656 q 153 637 147 643 q 167 631 159 631 q 180 636 174 631 q 186 647 185 640 m 235 730 q 244 733 240 730 q 252 740 249 735 q 296 784 272 763 q 348 822 320 806 q 406 848 376 838 q 468 857 437 857 q 482 863 476 857 q 488 877 488 869 q 482 891 488 885 q 468 897 476 897 q 428 891 451 897 q 378 876 404 885 q 327 853 353 866 q 278 824 301 840 q 240 792 256 809 q 217 759 224 776 q 216 754 217 758 q 215 749 215 751 q 221 735 215 741 q 235 730 226 730 z "},"H":{"ha":882,"x_min":39,"x_max":844,"o":"m 844 766 q 834 674 844 719 q 813 584 824 629 q 791 494 801 539 q 781 401 781 449 q 785 336 781 368 q 797 272 790 303 q 811 208 803 240 q 828 144 819 176 q 834 114 831 129 q 836 83 836 99 q 823 16 836 48 q 786 -40 810 -16 q 732 -78 763 -64 q 665 -92 701 -92 q 602 -81 631 -92 q 553 -49 574 -69 q 520 0 532 -28 q 508 63 508 28 q 516 133 508 98 q 534 204 524 169 q 553 275 544 240 q 568 345 563 310 l 565 351 q 503 320 537 330 q 435 310 469 310 q 373 319 403 310 q 317 345 342 327 l 316 340 q 324 275 316 306 q 341 211 332 243 q 359 148 351 180 q 367 83 367 117 q 353 16 367 48 q 317 -40 340 -16 q 263 -78 294 -64 q 195 -92 231 -92 q 133 -81 162 -92 q 83 -49 104 -69 q 51 0 63 -28 q 39 63 39 28 q 42 98 39 81 q 49 132 44 115 q 68 201 59 167 q 85 271 78 236 q 98 342 93 306 q 103 414 103 378 q 91 538 103 477 q 65 659 79 598 q 56 708 60 683 q 52 759 52 733 q 63 833 52 799 q 95 891 74 867 q 148 930 117 916 q 222 944 180 944 q 290 930 261 944 q 337 891 318 915 q 365 834 356 866 q 374 767 374 802 q 368 701 374 733 q 353 636 362 668 q 336 572 345 603 q 322 507 328 540 l 325 501 q 386 523 354 516 q 450 531 417 531 q 508 524 479 531 q 564 506 538 518 l 565 511 q 553 573 560 542 q 539 634 546 603 q 527 696 532 665 q 522 759 522 727 q 532 833 522 799 q 565 891 543 867 q 618 930 586 916 q 692 944 649 944 q 759 929 731 944 q 806 890 788 915 q 834 834 825 866 q 844 766 844 801 m 142 569 q 155 575 149 569 q 160 588 160 580 q 159 601 160 594 q 156 615 158 608 q 149 625 153 621 q 136 629 144 629 q 123 623 128 629 q 117 608 117 617 q 118 596 117 603 q 121 583 119 589 q 128 572 124 576 q 140 568 133 568 l 142 569 m 140 749 q 141 778 140 762 q 147 809 142 794 q 159 836 151 824 q 180 854 167 849 q 195 874 195 860 q 189 887 195 881 q 175 893 183 893 q 136 875 151 893 q 114 832 122 857 q 103 779 106 806 q 100 735 100 752 q 100 718 100 728 q 103 696 101 707 q 110 678 106 685 q 124 670 115 670 q 138 675 132 670 q 144 688 144 681 q 142 719 144 704 q 140 749 140 734 m 607 588 q 620 594 615 588 q 626 608 626 600 q 626 620 626 613 q 623 634 625 628 q 615 645 620 640 q 603 649 610 649 q 589 643 595 649 q 583 628 583 636 q 584 616 583 623 q 588 603 585 609 q 595 592 590 597 q 607 588 600 588 m 609 750 q 610 778 609 763 q 616 809 612 794 q 628 836 620 824 q 649 854 636 849 q 665 874 665 860 q 658 887 665 881 q 644 893 652 893 q 606 875 620 893 q 583 832 591 857 q 572 779 575 806 q 569 735 569 752 q 570 718 569 728 q 573 696 570 707 q 580 678 575 685 q 594 670 585 670 q 608 675 601 670 q 614 688 614 681 q 611 719 614 704 q 609 750 609 734 z "},"I":{"ha":410,"x_min":38,"x_max":372,"o":"m 372 769 q 363 678 372 723 q 345 588 355 633 q 326 498 335 543 q 318 406 318 453 q 331 274 318 339 q 357 144 343 209 q 363 111 360 128 q 365 78 365 94 q 352 8 365 39 q 316 -46 340 -24 q 261 -80 293 -68 q 191 -92 229 -92 q 129 -80 157 -92 q 81 -47 101 -67 q 49 3 60 -26 q 38 65 38 32 q 41 99 38 83 q 48 132 44 116 q 81 269 65 201 q 97 410 97 338 q 90 499 97 455 q 75 588 83 544 q 59 676 66 632 q 52 766 52 721 q 61 838 52 806 q 90 894 70 871 q 139 931 109 918 q 212 944 169 944 q 283 931 253 944 q 332 895 313 918 q 362 840 352 872 q 372 769 372 808 m 144 572 q 158 577 151 572 q 165 590 165 582 q 164 603 165 596 q 161 617 163 610 q 153 627 158 623 q 141 632 149 632 q 127 626 133 632 q 122 613 122 621 q 123 601 122 608 q 126 587 124 594 q 133 576 128 581 q 144 572 137 572 m 144 749 q 145 777 144 761 q 151 808 147 793 q 163 836 155 824 q 184 854 171 849 q 195 861 191 857 q 199 874 199 865 q 193 887 199 881 q 179 893 187 893 q 141 875 156 893 q 118 832 126 857 q 107 781 110 807 q 104 737 104 754 q 105 719 104 731 q 107 697 105 708 q 115 678 110 686 q 129 670 120 670 q 143 675 137 670 q 149 688 149 681 q 146 718 149 703 q 144 749 144 733 z "},"J":{"ha":638,"x_min":8,"x_max":599,"o":"m 599 711 q 593 627 599 669 q 580 544 587 586 q 568 461 574 503 q 562 378 562 420 q 565 318 562 348 q 573 259 569 289 q 580 200 576 230 q 583 141 583 171 q 561 35 583 80 q 500 -38 538 -9 q 411 -80 462 -67 q 305 -94 360 -94 q 208 -81 254 -94 q 123 -43 162 -69 q 57 20 85 -18 q 15 108 28 58 q 9 131 11 119 q 8 153 8 142 q 18 202 8 179 q 45 244 28 226 q 85 272 62 262 q 135 283 108 283 q 186 270 168 283 q 215 240 205 258 q 230 200 226 222 q 238 161 234 179 q 249 130 242 142 q 272 118 256 118 q 308 139 293 118 q 334 193 323 160 q 351 266 344 226 q 360 344 357 306 q 365 413 364 382 q 366 460 366 444 q 365 493 366 471 q 361 541 364 515 q 356 597 359 568 q 347 650 352 625 q 335 693 342 675 q 319 717 328 711 l 313 717 q 296 709 306 717 q 273 690 286 701 q 241 672 259 680 q 198 663 222 663 q 154 672 174 663 q 119 695 134 681 q 96 731 104 710 q 88 774 88 751 q 109 851 88 819 q 165 901 131 882 q 239 929 198 920 q 317 938 279 938 q 423 926 372 938 q 513 887 474 914 q 575 817 552 860 q 599 711 599 774 m 156 765 q 166 768 161 765 q 176 776 172 771 q 183 786 181 781 q 186 796 186 792 q 182 808 186 803 l 181 809 q 167 815 176 815 q 157 812 162 815 q 147 805 151 809 q 140 794 142 800 q 137 784 137 789 q 143 770 137 776 q 156 765 149 765 m 447 818 q 460 824 455 818 q 466 838 466 830 q 457 855 466 848 q 433 869 447 863 q 400 879 418 875 q 366 886 383 883 q 334 890 349 889 q 313 892 320 892 q 282 889 303 892 q 241 880 262 886 q 206 865 221 874 q 190 842 190 856 q 196 828 190 834 q 209 822 201 822 q 222 827 211 822 q 247 837 232 831 q 278 848 261 843 q 313 852 296 852 q 353 847 331 852 q 394 835 374 842 q 427 823 413 828 q 447 818 442 818 z "},"K":{"ha":806,"x_min":38,"x_max":799,"o":"m 390 428 q 405 393 390 408 q 440 368 419 378 q 482 352 460 358 q 520 341 505 346 q 570 325 545 333 q 619 306 595 317 q 666 283 643 296 q 708 252 688 269 q 743 216 726 235 q 772 175 759 197 q 791 130 784 153 q 799 80 799 106 q 785 15 799 46 q 748 -40 771 -17 q 693 -78 724 -64 q 628 -92 663 -92 q 567 -80 592 -92 q 523 -48 542 -68 q 491 -1 504 -28 q 466 54 478 25 q 444 112 455 83 q 418 167 433 141 q 385 213 404 192 q 339 244 366 233 q 322 248 331 248 q 298 235 306 248 q 289 208 289 222 q 293 165 289 186 q 302 122 297 143 q 312 79 308 101 q 316 35 316 57 q 305 -19 316 4 q 274 -58 293 -42 q 228 -82 254 -74 q 174 -90 203 -90 q 75 -56 112 -90 q 38 42 38 -21 q 44 106 38 75 q 57 169 51 138 q 78 288 69 228 q 88 408 88 347 q 80 502 88 456 q 64 595 72 549 q 47 689 55 642 q 40 783 40 735 q 52 855 40 824 q 86 905 64 885 q 141 934 109 925 q 213 944 174 944 q 262 932 240 944 q 298 901 283 920 q 320 857 313 881 q 328 808 328 833 q 323 762 328 785 q 314 717 319 740 q 304 672 308 694 q 299 627 299 650 q 300 614 299 621 q 303 601 301 607 q 311 591 306 594 q 324 587 316 587 q 361 613 343 587 q 398 677 378 638 q 439 760 417 715 q 489 843 461 805 q 552 908 517 882 q 633 933 588 933 q 695 918 666 933 q 745 879 724 903 q 779 824 767 855 q 792 761 792 793 q 779 692 792 723 q 744 636 766 661 q 693 590 722 610 q 632 555 664 570 q 566 527 599 539 q 502 506 533 515 q 469 497 488 502 q 434 484 451 492 q 406 465 418 476 q 390 435 394 453 l 390 428 m 642 879 q 608 869 628 879 q 569 844 588 859 q 537 810 550 828 q 524 777 524 792 q 530 763 524 769 q 544 757 536 757 q 561 770 552 757 q 582 798 571 783 q 608 827 594 814 q 642 840 623 840 q 661 842 652 840 q 670 858 670 844 q 661 875 670 870 q 642 879 653 879 m 501 736 q 484 728 492 736 q 477 711 477 720 q 483 698 477 703 q 497 692 490 692 q 514 700 506 692 q 521 717 521 708 q 515 730 521 724 q 501 736 508 736 m 136 572 q 149 578 144 573 q 154 591 154 583 q 153 604 154 597 q 150 617 153 611 q 143 628 147 624 q 131 633 138 633 q 117 626 122 633 q 111 612 111 620 q 112 599 111 606 q 115 586 113 592 q 123 576 118 580 q 135 572 127 572 l 136 572 m 130 763 q 131 788 130 774 q 135 815 131 801 q 145 839 138 828 q 163 854 151 849 q 174 861 170 857 q 178 874 178 865 q 172 887 178 881 q 158 893 166 893 q 123 878 137 893 q 102 841 110 863 q 93 795 95 819 q 90 756 90 772 q 91 736 90 750 q 93 707 91 722 q 101 682 96 693 q 117 672 107 672 q 130 677 124 672 q 136 690 136 683 q 133 727 136 708 q 130 763 130 745 z "},"L":{"ha":684,"x_min":39,"x_max":676,"o":"m 557 197 q 602 189 581 197 q 640 166 624 181 q 667 131 657 151 q 676 86 676 110 q 657 8 676 40 q 606 -43 638 -24 q 533 -72 574 -62 q 450 -86 492 -82 q 366 -90 407 -90 q 292 -90 325 -90 q 204 -86 249 -90 q 122 -66 159 -82 q 62 -17 85 -49 q 39 71 39 15 q 42 106 39 89 q 49 140 44 123 q 68 209 58 175 q 85 278 77 244 q 98 348 93 313 q 103 419 103 383 q 95 504 103 462 q 78 588 88 547 q 61 672 69 630 q 53 756 53 714 q 63 829 53 795 q 94 889 74 863 q 146 929 115 915 q 219 944 177 944 q 289 927 258 944 q 340 883 319 910 q 371 822 360 856 q 381 751 381 787 q 370 659 381 704 q 347 569 360 614 q 321 480 333 524 q 307 388 309 435 q 304 314 305 351 q 303 239 303 276 q 303 220 303 233 q 305 193 303 208 q 308 162 306 178 q 315 134 310 147 q 325 113 319 121 q 341 104 331 104 q 371 111 356 104 q 402 128 386 118 q 436 150 419 138 q 472 173 453 163 q 512 190 491 183 q 557 197 533 197 m 149 576 q 164 582 158 576 q 169 597 169 588 q 168 609 169 602 q 165 622 167 616 q 157 633 162 628 q 146 637 153 637 q 132 631 138 637 q 126 617 126 625 q 127 605 126 612 q 130 591 128 597 q 138 580 133 585 q 149 576 142 576 m 150 749 q 151 777 150 761 q 157 808 153 793 q 169 836 161 824 q 190 854 177 849 q 201 861 197 857 q 206 874 206 865 q 199 887 206 881 q 185 893 193 893 q 147 875 162 893 q 124 832 132 857 q 113 781 116 807 q 110 737 110 754 q 111 719 110 731 q 114 697 111 708 q 121 678 116 686 q 135 670 126 670 q 149 675 143 670 q 155 688 155 681 q 152 718 155 703 q 150 749 150 733 z "},"M":{"ha":1086,"x_min":23,"x_max":1063,"o":"m 952 571 q 975 350 952 460 q 1039 138 998 241 q 1056 88 1049 113 q 1063 35 1063 62 q 1051 -22 1063 2 q 1021 -62 1040 -46 q 975 -86 1001 -78 q 918 -94 949 -94 q 840 -77 872 -94 q 789 -31 808 -60 q 760 35 769 -3 q 751 113 751 72 q 757 253 751 183 q 763 392 763 322 q 763 417 763 400 q 761 455 763 434 q 758 499 760 476 q 750 540 755 522 q 738 570 745 558 q 719 582 730 582 q 701 576 707 582 q 691 560 694 569 q 688 540 688 551 q 688 521 688 530 q 693 438 688 479 q 699 354 699 397 q 690 283 699 318 q 661 220 681 248 q 613 176 642 193 q 542 159 583 159 q 473 176 502 159 q 424 221 443 193 q 397 284 406 249 q 388 354 388 319 q 392 437 388 396 q 397 519 397 478 q 397 537 397 527 q 394 557 397 547 q 386 573 392 566 q 369 579 380 579 q 348 569 356 579 q 333 545 339 560 q 325 511 328 530 q 321 475 322 493 q 319 442 319 458 q 319 419 319 427 q 321 340 319 379 q 327 261 324 301 q 332 183 330 222 q 335 104 335 144 q 325 28 335 65 q 295 -35 315 -8 q 243 -78 275 -62 q 167 -94 211 -94 q 111 -86 138 -94 q 65 -62 85 -78 q 34 -23 46 -47 q 23 34 23 1 q 30 87 23 61 q 47 138 38 113 q 111 351 88 240 q 133 572 133 462 q 129 653 133 613 q 124 733 124 693 q 133 814 124 776 q 162 881 142 852 q 215 926 182 909 q 295 943 247 943 q 403 920 359 943 q 474 859 447 897 q 514 769 501 820 q 526 662 526 718 q 523 597 526 629 q 520 532 520 565 q 520 517 520 526 q 523 497 521 507 q 530 481 525 488 q 542 474 534 474 q 555 482 551 474 q 562 503 560 491 q 564 526 564 515 q 565 543 565 538 q 563 605 565 574 q 560 665 560 635 q 572 774 560 724 q 609 863 583 825 q 679 922 635 900 q 788 943 723 943 q 870 926 837 943 q 923 881 903 910 q 953 814 944 853 q 962 733 962 776 q 957 652 962 692 q 952 571 952 612 m 203 580 q 220 588 216 580 q 224 607 224 597 q 220 630 224 619 q 203 640 217 640 q 186 632 190 640 q 183 613 183 623 q 186 591 183 602 q 203 580 190 580 m 213 749 q 214 777 213 761 q 219 808 215 793 q 232 836 224 824 q 253 854 240 849 q 264 861 260 857 q 268 874 268 865 q 262 887 268 881 q 248 893 256 893 q 209 875 224 893 q 186 832 194 857 q 176 781 178 807 q 173 737 173 754 q 173 719 173 731 q 176 697 174 708 q 184 678 178 686 q 198 670 189 670 q 211 675 206 670 q 217 688 217 681 q 215 718 217 703 q 213 749 213 733 m 658 656 q 656 678 658 667 q 638 690 653 690 q 623 682 627 690 q 618 665 618 674 q 622 644 618 653 q 639 635 626 635 q 652 642 647 635 q 658 656 658 648 m 642 730 q 657 735 652 730 q 663 749 661 740 q 682 804 669 785 q 708 833 694 823 q 731 849 721 844 q 741 863 741 855 q 735 877 741 871 q 721 883 729 883 q 683 869 701 883 q 652 834 665 855 q 631 790 638 813 q 623 750 623 767 q 628 736 623 742 q 642 730 634 730 z "},"N":{"ha":910,"x_min":38,"x_max":872,"o":"m 722 944 q 834 907 797 944 q 872 795 872 869 q 869 756 872 775 q 863 716 867 736 q 844 559 850 638 q 839 401 839 481 q 842 292 839 347 q 851 184 845 238 q 853 156 852 170 q 854 128 854 142 q 841 37 854 78 q 800 -33 827 -4 q 733 -78 773 -62 q 642 -94 694 -94 q 551 -81 589 -94 q 489 -42 513 -68 q 451 23 464 -16 q 435 112 438 61 q 430 178 433 138 q 419 265 426 219 q 404 360 413 312 q 382 451 395 408 q 353 527 369 494 q 315 576 336 560 q 299 582 308 582 q 274 572 283 582 q 258 548 264 562 q 251 517 253 533 q 249 490 249 501 q 260 386 249 438 q 286 285 272 335 q 312 191 300 236 q 324 106 324 145 q 316 33 324 69 q 292 -31 309 -3 q 245 -76 274 -59 q 172 -93 215 -93 q 71 -56 104 -93 q 38 47 38 -19 q 43 99 38 73 q 53 151 47 125 q 73 265 67 208 q 78 381 78 322 q 71 523 78 452 q 53 665 64 593 q 48 700 50 683 q 47 735 47 717 q 63 827 47 788 q 108 892 78 866 q 178 931 137 918 q 269 944 219 944 q 376 922 334 944 q 442 861 417 899 q 479 773 467 823 q 497 668 491 724 q 504 610 500 646 q 514 534 508 575 q 528 451 520 494 q 548 370 537 408 q 574 303 559 332 q 606 263 588 275 q 614 259 610 260 q 622 257 617 257 q 645 265 636 257 q 658 284 653 272 q 665 308 663 295 q 666 332 666 321 q 652 440 666 386 q 623 545 639 493 q 593 650 606 598 q 579 752 579 701 q 585 824 579 789 q 607 885 591 858 q 651 928 623 912 q 722 944 678 944 m 144 572 q 159 578 153 572 q 165 592 165 584 q 164 605 165 598 q 161 618 163 612 q 155 628 159 624 q 144 633 151 633 q 129 627 135 633 q 123 613 123 622 q 123 600 123 607 q 126 587 124 593 q 132 576 128 581 q 144 572 137 572 m 149 741 q 150 767 149 754 q 156 791 151 780 q 169 812 160 803 q 191 826 177 821 q 206 846 206 832 q 200 860 206 854 q 186 865 194 865 q 148 851 163 865 q 125 816 133 837 q 113 772 116 795 q 109 731 109 749 q 109 715 109 725 q 112 695 110 705 q 119 677 115 685 q 133 670 124 670 q 147 675 141 670 q 153 689 153 681 q 151 715 153 702 q 149 741 149 728 m 669 642 q 683 648 678 642 q 689 663 689 654 q 683 683 689 672 q 667 693 678 693 q 653 687 659 693 q 647 673 647 681 q 652 653 647 663 q 669 642 658 642 m 669 769 q 674 805 669 788 q 686 835 679 822 q 698 857 692 849 q 703 868 703 866 q 697 882 703 876 q 684 888 692 888 q 659 873 669 888 q 642 839 649 858 q 632 799 635 819 q 629 769 629 779 q 630 753 629 763 q 632 736 630 744 q 639 721 634 727 q 653 715 644 715 q 667 721 660 715 q 673 734 673 726 q 671 752 673 744 q 669 769 669 760 z "},"O":{"ha":739,"x_min":38,"x_max":700,"o":"m 640 417 q 649 350 640 383 q 667 285 657 317 q 685 219 677 252 q 694 152 694 187 q 665 30 694 78 q 590 -44 637 -17 q 483 -82 543 -72 q 361 -92 424 -92 q 245 -82 302 -92 q 144 -44 189 -71 q 72 29 99 -17 q 44 144 44 75 q 53 211 44 178 q 71 275 61 243 q 89 339 81 307 q 97 406 97 372 q 90 449 97 428 q 76 490 83 470 q 49 586 60 540 q 38 685 38 633 q 69 808 38 759 q 149 888 99 858 q 260 931 198 918 q 384 944 322 944 q 491 930 435 944 q 593 888 547 916 q 670 815 640 859 q 700 711 700 771 q 691 636 700 673 q 670 564 681 600 q 650 492 659 528 q 640 417 640 456 m 128 572 q 142 578 136 572 q 148 592 148 583 q 143 615 148 603 q 125 626 138 626 q 111 620 117 626 q 106 607 106 615 q 110 584 106 596 q 128 572 115 572 m 139 689 q 142 737 139 715 q 162 780 144 759 q 179 792 167 787 q 203 803 191 798 q 223 815 215 809 q 232 828 232 821 q 225 842 232 837 q 211 847 219 847 q 164 834 185 847 q 128 801 143 821 q 106 757 114 781 q 98 708 98 732 q 98 695 98 702 q 101 683 99 689 q 107 674 103 678 q 119 670 111 670 q 133 676 127 670 q 139 689 139 681 m 458 226 q 452 273 458 250 q 440 318 447 296 q 427 364 433 341 q 422 411 422 388 q 428 465 422 439 q 442 518 435 492 q 457 570 450 544 q 463 624 463 596 q 375 711 463 711 q 303 687 329 711 q 276 616 276 663 q 283 567 276 591 q 296 519 289 543 q 309 471 303 495 q 315 422 315 447 q 307 369 315 394 q 290 319 299 344 q 273 269 281 294 q 265 219 265 244 q 272 185 265 199 q 293 160 280 170 q 322 146 306 151 q 356 141 338 141 q 394 146 376 141 q 427 162 413 151 q 450 188 441 172 q 458 226 458 204 z "},"P":{"ha":767,"x_min":39,"x_max":759,"o":"m 759 666 q 741 551 759 606 q 690 453 724 495 q 606 385 656 410 q 491 360 556 360 q 449 363 470 360 q 407 365 428 365 q 360 361 382 365 q 322 346 338 357 q 297 317 306 335 q 288 269 288 298 q 293 209 288 239 q 305 150 298 179 q 316 90 311 120 q 322 30 322 60 q 310 -24 322 -1 q 278 -61 298 -47 q 232 -83 258 -76 q 178 -90 206 -90 q 121 -82 147 -90 q 77 -57 96 -74 q 49 -16 59 -40 q 39 41 39 9 q 45 105 39 74 q 58 169 51 137 q 79 288 69 228 q 88 408 88 347 q 82 490 88 449 q 69 571 76 531 q 56 652 62 611 q 49 733 49 692 q 65 822 49 785 q 108 881 81 858 q 171 917 135 904 q 247 936 207 930 q 330 943 288 942 q 410 944 372 944 q 537 927 474 944 q 649 877 599 911 q 728 791 698 843 q 759 666 759 738 m 144 572 q 157 578 151 572 q 163 592 163 584 q 162 605 163 598 q 158 618 161 612 q 151 628 156 624 q 140 633 147 633 q 126 627 131 633 q 120 613 120 621 q 121 600 120 607 q 124 586 122 592 q 131 576 126 580 q 144 572 136 572 m 147 742 q 148 768 147 755 q 154 792 149 781 q 167 812 158 803 q 189 826 175 821 q 200 834 195 829 q 204 846 204 838 q 198 860 204 854 q 183 865 191 865 q 145 851 160 865 q 122 816 131 837 q 110 773 114 796 q 107 733 107 750 q 107 716 107 726 q 110 695 108 706 q 117 677 113 685 q 131 670 122 670 q 145 676 139 670 q 151 689 151 681 q 149 715 151 702 q 147 742 147 728 m 356 581 q 387 584 367 581 q 425 595 406 588 q 457 613 443 602 q 470 640 470 624 q 460 664 470 655 q 434 679 449 674 q 403 686 419 684 q 376 688 388 688 q 345 686 359 688 q 322 678 331 685 q 306 660 312 672 q 301 628 301 648 q 304 603 301 613 q 314 589 307 594 q 331 583 321 584 q 356 581 341 581 z "},"Q":{"ha":732,"x_min":38,"x_max":693,"o":"m 687 169 q 655 37 687 93 q 551 -50 622 -19 q 589 -71 569 -61 q 625 -93 609 -81 q 652 -123 642 -106 q 663 -166 663 -140 q 656 -201 663 -184 q 637 -232 649 -219 q 608 -254 625 -246 q 573 -262 592 -262 q 525 -247 544 -262 q 490 -210 506 -233 q 462 -171 474 -189 q 438 -139 450 -153 q 409 -109 425 -124 q 369 -81 393 -95 q 251 -71 309 -81 q 147 -35 193 -61 q 73 37 101 -9 q 45 154 45 83 q 53 219 45 188 q 71 283 61 251 q 89 347 81 315 q 97 413 97 379 q 90 455 97 435 q 76 496 83 476 q 49 591 59 544 q 38 690 38 638 q 68 811 38 763 q 148 890 99 860 q 258 932 197 919 q 381 945 319 945 q 451 939 415 945 q 522 920 487 933 q 588 889 556 908 q 642 845 619 870 q 679 787 665 819 q 693 715 693 754 q 684 641 693 677 q 664 569 674 605 q 643 498 653 534 q 634 424 634 462 q 642 359 634 391 q 660 297 651 328 q 678 234 670 265 q 687 169 687 202 m 127 577 q 141 583 135 577 q 147 596 147 588 q 146 607 147 601 q 143 618 145 613 q 136 627 140 624 q 125 631 132 631 q 111 625 117 631 q 105 612 105 619 q 109 589 105 601 q 127 577 114 577 m 138 693 q 141 740 138 718 q 160 783 143 763 q 178 795 167 790 q 201 806 190 801 q 222 817 213 811 q 231 831 231 823 q 225 843 231 838 q 213 849 220 849 q 165 837 186 849 q 129 806 144 825 q 106 762 114 786 q 98 713 98 738 q 98 701 98 708 q 101 688 99 694 q 107 678 103 682 q 119 674 111 674 q 132 680 126 674 q 138 693 138 685 m 454 234 q 448 281 454 258 q 436 326 442 303 q 423 372 429 349 q 417 418 417 394 q 424 471 417 445 q 438 523 431 497 q 452 575 446 549 q 459 628 459 601 q 437 693 459 672 q 372 715 415 715 q 300 691 326 715 q 274 621 274 667 q 280 572 274 596 q 293 524 286 548 q 307 477 301 501 q 313 428 313 453 q 305 376 313 401 q 288 326 297 351 q 270 277 278 302 q 263 228 263 253 q 270 194 263 209 q 291 170 278 180 q 320 155 303 160 q 353 150 336 150 q 391 155 372 150 q 423 171 409 160 q 445 197 437 181 q 454 234 454 213 z "},"R":{"ha":812,"x_min":39,"x_max":796,"o":"m 469 393 q 483 372 469 382 q 520 350 497 361 q 573 326 543 339 q 633 298 602 314 q 693 262 663 282 q 745 217 722 242 q 782 160 768 192 q 796 88 796 128 q 783 20 796 53 q 749 -37 771 -12 q 696 -77 726 -62 q 628 -92 665 -92 q 551 -72 581 -92 q 501 -18 522 -51 q 467 53 481 14 q 436 131 452 93 q 397 199 419 168 q 339 244 375 230 q 322 248 331 248 q 307 244 313 248 q 298 233 301 240 q 292 219 294 226 q 290 204 290 211 q 295 158 290 181 q 306 112 300 135 q 316 66 311 89 q 321 19 321 42 q 308 -30 321 -10 q 274 -64 294 -51 q 228 -84 253 -77 q 178 -90 203 -90 q 122 -82 147 -90 q 77 -56 96 -73 q 49 -15 59 -40 q 39 42 39 10 q 45 106 39 74 q 58 169 51 138 q 79 288 70 228 q 88 408 88 347 q 82 490 88 449 q 69 571 76 531 q 56 652 62 611 q 49 733 49 692 q 65 822 49 785 q 108 881 81 858 q 171 917 135 904 q 247 936 207 930 q 330 943 288 942 q 410 944 372 944 q 538 927 475 944 q 649 877 600 911 q 728 790 698 843 q 758 665 758 738 q 742 574 758 610 q 697 511 726 537 q 630 467 669 485 q 546 433 591 449 q 528 427 541 431 q 502 417 515 423 q 480 406 490 412 q 469 393 469 399 m 144 572 q 159 576 152 572 q 166 590 166 581 q 165 602 166 596 q 161 615 164 609 q 155 625 159 621 q 143 629 150 629 q 130 624 135 629 q 124 610 124 618 q 125 599 124 606 q 128 586 126 592 q 134 576 130 581 q 144 572 138 572 m 151 742 q 152 768 151 755 q 158 792 153 781 q 171 813 163 803 q 193 826 179 822 q 208 846 208 832 q 202 860 208 854 q 188 865 195 865 q 150 851 165 865 q 127 816 135 837 q 115 773 118 796 q 111 733 111 750 q 111 716 111 726 q 114 695 112 706 q 122 677 117 685 q 135 670 126 670 q 149 676 143 670 q 155 689 155 681 q 153 715 155 702 q 151 742 151 728 m 356 581 q 387 584 367 581 q 425 595 406 588 q 457 613 443 602 q 470 640 470 624 q 460 664 470 655 q 434 679 449 674 q 403 686 419 684 q 376 688 388 688 q 345 686 359 688 q 321 678 331 684 q 306 660 311 672 q 301 628 301 648 q 304 603 301 613 q 314 589 307 594 q 331 583 321 584 q 356 581 341 581 z "},"S":{"ha":696,"x_min":15,"x_max":680,"o":"m 290 672 q 303 630 290 649 q 334 593 315 610 q 373 563 352 576 q 410 538 394 549 q 500 473 452 510 q 587 392 547 436 q 653 297 627 348 q 680 191 680 247 q 665 109 680 147 q 625 40 651 71 q 566 -17 600 8 q 493 -58 532 -42 q 414 -84 455 -75 q 333 -93 373 -93 q 215 -78 272 -93 q 113 -32 157 -63 q 42 49 69 0 q 15 167 15 99 q 25 227 15 200 q 52 273 34 254 q 95 303 69 292 q 155 313 122 313 q 214 302 189 313 q 255 271 238 291 q 279 224 271 251 q 287 166 287 197 q 305 116 287 131 q 356 100 323 100 q 391 107 376 100 q 416 126 406 114 q 432 154 426 138 q 438 189 438 170 q 420 243 438 217 q 374 295 403 269 q 309 347 345 321 q 234 402 272 374 q 159 462 195 431 q 93 529 122 493 q 47 606 65 565 q 30 694 30 647 q 55 802 30 756 q 122 880 81 849 q 216 928 163 912 q 324 944 269 944 q 404 941 363 944 q 484 927 445 938 q 556 897 522 917 q 615 842 590 876 q 650 776 636 813 q 663 702 663 739 q 653 651 663 674 q 624 610 642 627 q 582 583 606 592 q 531 573 558 573 q 490 581 508 573 q 458 602 471 588 q 437 634 444 615 q 430 674 430 652 q 428 706 430 692 q 421 727 427 719 q 403 741 415 736 q 372 745 392 745 q 341 740 356 745 q 315 725 326 735 q 297 702 303 716 q 290 672 290 689 m 105 642 q 118 649 114 642 q 125 664 123 655 q 127 682 127 672 q 127 697 127 691 q 121 711 127 706 q 107 717 115 717 q 95 712 99 717 q 88 701 90 708 q 85 688 85 695 q 84 675 84 681 q 88 653 84 665 q 105 642 92 642 m 134 750 q 146 757 140 750 q 158 774 151 764 q 174 797 165 785 q 199 819 184 808 q 235 836 214 829 q 287 843 256 843 q 302 842 293 843 q 319 840 311 840 q 338 844 331 840 q 346 862 346 849 q 340 874 346 869 q 327 880 335 878 q 311 882 319 882 q 298 883 303 883 q 242 877 272 883 q 188 859 213 872 q 143 826 163 847 q 116 777 124 806 q 115 769 115 773 q 120 756 115 762 q 134 750 126 750 z "},"T":{"ha":883,"x_min":8,"x_max":875,"o":"m 701 944 q 765 935 734 944 q 821 906 797 925 q 860 859 845 887 q 875 795 875 831 q 865 741 875 765 q 837 699 855 716 q 795 672 819 681 q 740 663 770 663 q 707 665 724 663 q 674 672 690 668 q 641 678 658 675 q 608 681 625 681 q 586 679 597 681 q 566 672 576 677 q 555 655 560 668 q 546 622 550 641 q 539 582 542 603 q 535 540 537 560 q 532 503 533 519 q 531 479 531 488 q 544 357 531 417 q 572 237 557 297 q 591 163 581 200 q 601 88 601 126 q 588 19 601 52 q 553 -38 576 -13 q 499 -78 531 -63 q 431 -92 468 -92 q 367 -81 396 -92 q 319 -48 339 -69 q 288 3 299 -26 q 276 66 276 32 q 289 170 276 118 q 317 275 302 222 q 345 383 333 328 q 358 494 358 438 q 358 517 358 501 q 356 552 357 533 q 352 592 354 571 q 346 631 349 613 q 338 661 342 649 q 328 678 333 674 q 308 685 319 683 q 288 688 298 688 q 228 681 257 688 q 168 674 199 674 q 105 683 134 674 q 54 709 75 691 q 20 753 33 726 q 8 817 8 780 q 23 879 8 853 q 61 920 38 904 q 116 943 85 935 q 178 950 146 950 q 242 946 210 950 q 305 938 274 942 q 368 929 337 933 q 432 925 400 925 q 500 928 466 925 q 567 935 533 931 q 634 941 600 938 q 701 944 667 944 m 73 810 q 89 818 81 810 q 97 835 97 826 q 91 849 97 842 q 77 855 85 855 q 61 847 67 855 q 55 830 55 839 q 60 816 55 823 q 73 810 65 810 m 335 846 q 349 852 342 846 q 355 866 355 858 q 345 881 355 874 q 319 893 335 888 q 285 902 304 898 q 249 908 267 906 q 217 911 231 910 q 196 913 203 913 q 172 911 187 913 q 142 905 156 909 q 116 892 127 900 q 106 873 106 885 q 111 859 106 865 q 125 853 117 853 q 135 856 128 853 q 152 863 142 859 q 173 870 161 867 q 196 873 184 873 q 233 869 214 873 q 269 859 251 865 q 304 850 288 854 q 335 846 321 846 z "},"U":{"ha":867,"x_min":31,"x_max":836,"o":"m 690 944 q 753 933 726 944 q 799 901 781 922 q 827 851 817 880 q 836 788 836 822 q 824 703 836 744 q 797 621 812 663 q 770 536 783 580 q 758 443 758 493 q 763 366 758 404 q 773 289 767 328 q 783 213 778 251 q 788 135 788 174 q 773 50 788 87 q 733 -12 758 14 q 674 -54 708 -37 q 601 -80 640 -70 q 522 -92 563 -89 q 442 -96 481 -96 q 376 -95 409 -96 q 310 -94 344 -94 q 209 -79 256 -94 q 130 -36 163 -65 q 78 36 97 -7 q 59 138 59 80 q 60 161 59 149 q 62 184 60 172 q 77 339 69 262 q 85 494 85 415 q 82 581 85 538 q 62 667 78 625 q 40 733 50 700 q 31 801 31 765 q 42 862 31 835 q 73 907 53 889 q 120 935 92 925 q 181 944 148 944 q 245 934 215 944 q 300 905 276 924 q 338 857 324 885 q 352 793 352 829 q 349 757 352 775 q 340 722 345 740 q 303 566 317 644 q 290 406 290 488 q 294 327 290 369 q 312 251 298 286 q 354 193 326 216 q 431 171 382 171 q 505 191 478 171 q 544 242 531 210 q 561 311 558 273 q 564 385 564 349 q 514 724 564 559 q 505 757 508 740 q 501 790 501 773 q 518 857 501 828 q 561 906 535 886 q 622 935 588 925 q 690 944 656 944 m 85 794 q 87 765 85 785 q 95 724 90 744 q 108 686 100 703 q 126 670 115 670 q 141 676 135 670 q 147 690 147 682 q 143 716 147 703 q 135 741 140 728 q 128 767 131 754 q 124 794 124 781 q 129 821 124 813 q 139 834 133 829 q 148 842 144 838 q 152 853 152 845 q 146 868 152 862 q 133 874 140 874 q 110 865 119 874 q 96 844 101 856 q 88 818 90 832 q 85 794 85 804 m 154 572 q 168 578 162 572 q 174 592 174 584 q 172 604 174 597 q 167 617 170 610 q 158 627 163 623 q 147 631 153 631 q 134 625 140 631 q 128 611 128 619 q 130 599 128 606 q 135 586 131 592 q 143 576 138 580 q 154 572 148 572 m 605 640 q 619 646 613 640 q 625 660 625 652 q 619 679 625 669 q 602 688 613 688 q 588 682 594 688 q 583 667 583 676 q 589 649 583 658 q 605 640 594 640 m 594 783 q 602 818 594 807 q 619 834 610 828 q 637 844 629 840 q 645 857 645 848 q 639 872 645 867 q 624 878 633 878 q 594 868 607 878 q 573 845 581 859 q 559 815 564 831 q 554 784 554 798 q 556 766 554 777 q 560 744 557 755 q 569 725 563 733 q 585 717 576 717 q 598 723 592 717 q 604 736 604 728 q 599 760 604 749 q 594 783 594 772 z "},"V":{"ha":798,"x_min":16,"x_max":782,"o":"m 635 944 q 691 935 665 944 q 738 910 717 926 q 770 869 758 893 q 782 814 782 845 q 774 756 782 784 q 753 701 765 728 q 711 593 732 647 q 676 482 691 538 q 651 369 660 426 q 642 253 642 313 q 645 195 642 224 q 649 137 649 166 q 630 36 649 80 q 578 -36 611 -7 q 499 -79 544 -65 q 399 -94 453 -94 q 293 -80 340 -94 q 214 -38 247 -67 q 165 35 182 -9 q 148 140 148 79 q 151 211 148 176 q 153 282 153 247 q 149 386 153 334 q 134 489 144 438 q 106 589 124 540 q 60 683 88 638 q 30 743 43 713 q 16 808 16 773 q 31 865 16 840 q 70 908 46 890 q 123 935 94 926 q 182 944 153 944 q 248 923 221 944 q 292 868 274 902 q 319 793 310 835 q 333 708 328 751 q 338 627 338 666 q 339 561 339 588 q 337 482 339 522 q 335 403 335 442 q 335 373 335 394 q 337 327 335 353 q 341 275 338 302 q 351 226 344 248 q 366 189 357 203 q 390 174 376 174 q 417 192 406 174 q 436 238 428 210 q 447 300 443 266 q 453 365 451 333 q 456 423 456 397 q 458 460 457 449 q 459 516 458 483 q 461 588 460 549 q 467 667 463 626 q 480 748 472 708 q 501 823 488 788 q 532 886 513 859 q 576 928 550 913 q 635 944 601 944 m 124 670 q 138 676 132 670 q 144 690 144 682 q 138 706 144 694 q 126 732 133 717 q 113 764 119 747 q 108 795 108 781 q 112 816 108 809 q 122 828 117 824 q 131 838 127 833 q 135 849 135 842 q 130 864 135 858 q 116 869 124 869 q 96 861 105 869 q 81 842 87 853 q 71 818 74 831 q 68 796 68 806 q 73 766 68 787 q 85 724 77 745 q 103 686 93 703 q 124 670 113 670 m 160 572 q 174 578 168 572 q 180 592 180 584 q 178 604 180 597 q 173 617 176 610 q 165 627 169 623 q 153 631 160 631 q 140 625 146 631 q 133 611 133 619 q 135 599 133 606 q 140 586 137 592 q 149 576 144 580 q 160 572 154 572 m 522 647 q 537 653 531 647 q 543 669 543 660 q 537 682 543 676 q 524 688 531 688 q 509 681 515 688 q 502 667 502 675 q 508 653 502 659 q 522 647 514 647 m 541 724 q 553 728 549 724 q 560 740 558 733 q 570 774 566 758 q 580 805 574 790 q 595 833 586 819 q 621 860 605 847 q 627 867 624 864 q 630 876 630 871 q 624 891 630 885 q 610 897 618 897 q 589 888 600 897 q 569 864 578 878 q 550 833 559 850 q 535 798 542 815 q 525 766 529 781 q 522 743 522 751 q 527 730 522 735 q 541 724 533 724 z "},"W":{"ha":1070,"x_min":15,"x_max":1055,"o":"m 911 944 q 968 936 942 944 q 1014 912 994 928 q 1044 872 1033 896 q 1055 815 1055 848 q 1048 763 1055 789 q 1031 713 1041 738 q 968 500 991 609 q 944 279 944 391 q 949 198 944 238 q 954 117 954 158 q 945 37 954 75 q 916 -30 936 -1 q 863 -76 896 -59 q 782 -93 830 -93 q 676 -71 720 -93 q 605 -10 633 -49 q 565 78 578 28 q 553 184 553 128 q 555 251 553 218 q 558 319 558 285 q 557 334 558 324 q 555 353 557 343 q 548 369 553 363 q 535 376 544 376 q 523 368 527 376 q 516 347 518 359 q 514 324 514 335 q 513 307 513 313 q 516 248 513 277 q 518 188 518 218 q 507 78 518 130 q 470 -11 497 27 q 401 -71 444 -49 q 290 -93 357 -93 q 208 -76 242 -93 q 155 -31 175 -60 q 125 36 134 -3 q 116 117 116 74 q 121 198 116 158 q 126 279 126 238 q 102 500 126 389 q 40 713 79 611 q 23 763 30 738 q 15 816 15 789 q 26 873 15 849 q 57 912 38 897 q 103 936 77 928 q 160 944 130 944 q 238 927 206 944 q 289 881 269 910 q 318 815 309 853 q 326 737 326 778 q 320 598 326 667 q 315 460 315 529 q 315 435 315 452 q 316 396 315 417 q 320 352 317 374 q 328 311 323 329 q 340 280 333 292 q 358 268 347 268 q 377 274 371 268 q 386 289 383 280 q 390 308 390 298 q 390 327 390 319 q 385 411 390 369 q 379 496 379 453 q 388 567 379 532 q 417 630 397 602 q 466 674 436 657 q 535 691 495 691 q 605 674 576 691 q 654 629 635 657 q 682 566 673 601 q 691 496 691 531 q 686 414 691 454 q 681 333 681 374 q 681 315 681 326 q 684 294 681 304 q 692 278 686 285 q 709 271 698 271 q 730 280 722 271 q 744 305 739 290 q 753 339 750 320 q 758 375 756 357 q 759 408 759 392 q 760 431 760 423 q 757 508 760 470 q 752 585 755 547 q 746 662 749 624 q 744 738 744 700 q 753 817 744 779 q 782 882 762 854 q 833 927 801 910 q 911 944 865 944 m 63 803 q 67 772 63 793 q 79 729 72 751 q 97 691 87 708 q 119 675 107 675 q 133 681 127 675 q 139 694 139 687 q 133 709 139 698 q 121 735 128 720 q 108 768 114 751 q 103 802 103 785 q 108 827 103 819 q 119 838 113 834 q 130 845 125 842 q 135 858 135 849 q 129 872 135 866 q 116 878 124 878 q 93 870 103 878 q 77 851 83 863 q 67 827 70 840 q 63 803 63 814 m 143 592 q 157 598 151 592 q 163 611 163 603 q 158 631 163 621 q 141 642 153 642 q 127 636 133 642 q 121 622 121 631 q 126 602 121 612 q 143 592 131 592 m 817 641 q 831 647 825 641 q 837 661 837 653 q 832 680 837 671 q 816 690 828 690 q 802 684 808 690 q 796 670 796 678 q 800 651 796 660 q 817 641 805 641 m 836 741 q 837 776 836 759 q 842 807 838 792 q 858 832 847 822 q 889 848 869 843 q 901 854 896 849 q 906 866 906 858 q 885 888 906 888 q 844 875 861 888 q 816 842 827 862 q 801 800 806 823 q 796 758 796 778 q 796 747 796 753 q 799 735 797 740 q 805 726 801 730 q 817 723 809 723 q 830 728 824 723 q 836 741 836 733 z "},"X":{"ha":805,"x_min":24,"x_max":782,"o":"m 608 418 q 628 354 618 385 q 646 289 638 323 q 664 242 652 264 q 691 201 676 221 q 722 162 706 181 q 751 122 738 142 q 773 78 765 101 q 781 28 781 56 q 768 -26 781 -3 q 732 -64 754 -49 q 683 -86 710 -79 q 627 -93 656 -93 q 566 -84 594 -93 q 518 -56 538 -74 q 487 -12 498 -38 q 476 49 476 15 q 478 81 476 65 q 484 111 481 96 q 490 141 488 126 q 492 172 492 156 q 487 209 492 189 q 472 247 482 229 q 445 276 461 265 q 410 288 430 288 q 364 279 383 288 q 333 253 345 269 q 315 216 321 238 q 310 171 310 195 q 312 138 310 154 q 318 106 315 122 q 323 74 321 90 q 326 42 326 58 q 313 -21 326 5 q 279 -62 301 -47 q 228 -85 257 -78 q 165 -92 199 -92 q 108 -85 134 -92 q 63 -61 82 -77 q 34 -22 44 -46 q 24 36 24 3 q 40 109 24 77 q 78 171 56 141 q 122 231 100 201 q 156 298 144 261 q 166 324 158 304 q 181 365 173 344 q 194 405 188 387 q 201 424 201 422 q 199 430 201 427 q 177 495 188 464 q 159 563 167 527 q 141 609 153 588 q 114 651 128 631 q 83 690 99 671 q 53 730 67 710 q 32 774 40 751 q 24 824 24 797 q 38 879 24 856 q 73 917 51 902 q 123 938 95 931 q 178 944 151 944 q 240 935 212 944 q 288 908 267 926 q 319 863 308 890 q 330 802 330 837 q 327 771 330 787 q 322 741 325 756 q 316 710 319 726 q 313 679 313 695 q 319 642 313 663 q 335 605 324 622 q 360 575 345 587 q 395 563 376 563 q 441 573 422 563 q 473 598 460 582 q 490 635 485 614 q 496 681 496 657 q 493 714 496 698 q 488 746 491 730 q 482 778 485 762 q 479 810 479 794 q 492 873 479 847 q 527 914 505 899 q 578 937 549 930 q 640 944 608 944 q 698 936 672 944 q 742 913 724 928 q 772 873 761 897 q 782 815 782 849 q 766 742 782 774 q 727 680 749 710 q 683 620 706 651 q 649 553 660 590 q 627 490 638 522 q 606 427 617 459 l 608 418 m 153 690 q 166 697 160 690 q 172 710 172 703 q 164 726 172 717 q 147 747 156 735 q 129 775 137 759 q 121 809 121 790 q 124 826 121 820 q 132 836 128 832 q 140 844 137 840 q 144 855 144 848 q 138 868 144 863 q 124 874 132 874 q 105 867 113 874 q 92 849 97 860 q 83 827 86 839 q 81 807 81 815 q 87 776 81 796 q 103 737 93 756 q 127 704 114 718 q 153 690 140 690 m 192 626 q 205 633 199 626 q 211 647 211 639 q 209 656 211 651 q 203 665 206 660 q 195 672 199 669 q 186 674 190 674 q 172 668 178 674 q 166 655 166 663 q 174 636 166 645 q 192 626 181 626 m 560 676 q 575 682 569 676 q 581 697 581 688 q 580 708 581 702 q 577 719 579 714 q 571 727 575 724 q 560 730 567 730 q 546 724 552 730 q 540 711 540 719 q 543 688 540 700 q 560 676 547 676 m 566 803 q 569 828 566 819 q 578 842 573 837 q 590 849 584 847 q 602 854 597 851 q 611 860 608 856 q 615 872 615 864 q 609 885 615 879 q 595 891 603 891 q 566 883 578 891 q 544 862 553 874 q 531 834 535 849 q 526 804 526 819 q 527 790 526 798 q 530 773 527 781 q 536 760 532 765 q 549 754 541 754 q 564 760 558 754 q 569 774 569 765 q 568 789 569 781 q 566 803 566 796 z "},"Y":{"ha":787,"x_min":16,"x_max":772,"o":"m 630 944 q 687 936 661 944 q 732 914 713 929 q 761 874 751 898 q 772 816 772 849 q 763 762 772 787 q 742 715 755 737 q 715 672 730 692 q 686 628 699 651 q 663 582 673 606 q 651 530 653 558 q 644 466 649 499 q 631 402 640 433 q 603 344 621 371 q 557 299 586 317 q 535 290 546 292 q 517 283 525 287 q 505 272 510 279 q 500 248 500 264 q 506 192 500 219 q 520 138 513 165 q 535 85 528 112 q 541 32 541 59 q 527 -22 541 1 q 491 -61 513 -45 q 441 -85 469 -77 q 387 -94 414 -94 q 336 -87 361 -94 q 291 -67 311 -81 q 259 -32 272 -53 q 247 18 247 -11 q 254 76 247 47 q 270 134 262 105 q 287 192 279 163 q 294 251 294 221 q 293 262 294 258 q 286 269 292 266 q 257 284 272 277 q 228 301 242 291 q 178 346 197 322 q 147 399 158 371 q 131 460 136 428 q 124 526 126 492 q 113 589 122 563 q 91 638 103 616 q 66 678 79 659 q 42 717 53 697 q 23 761 31 738 q 16 817 16 785 q 28 875 16 851 q 62 914 41 899 q 110 937 83 930 q 168 944 138 944 q 230 935 201 944 q 278 908 258 926 q 309 863 298 890 q 320 802 320 837 q 316 759 320 781 q 308 716 313 738 q 300 674 303 695 q 296 631 296 653 q 300 589 296 608 q 315 555 304 569 q 342 532 325 540 q 385 524 359 524 q 435 534 415 524 q 467 561 455 544 q 485 602 480 578 q 490 651 490 625 q 487 691 490 672 q 480 731 484 711 q 473 770 476 751 q 469 810 469 790 q 482 873 469 847 q 517 914 495 898 q 568 937 539 930 q 630 944 597 944 m 64 807 q 70 776 64 796 q 86 737 76 756 q 109 704 97 718 q 135 690 122 690 q 150 696 144 690 q 156 710 156 702 q 148 726 156 717 q 130 747 140 735 q 111 775 119 759 q 103 809 103 790 q 107 826 103 820 q 115 836 111 832 q 123 844 119 840 q 127 855 127 848 q 121 868 127 863 q 107 874 115 874 q 89 867 97 874 q 75 849 81 860 q 67 827 69 838 q 64 807 64 815 m 174 626 q 188 632 182 626 q 194 646 194 638 q 188 660 194 654 q 181 670 186 666 q 169 674 175 674 q 155 668 161 674 q 149 654 149 663 q 157 635 149 644 q 174 626 165 626 m 543 676 q 557 682 551 676 q 563 696 563 688 q 560 719 563 708 q 542 730 557 730 q 529 724 535 730 q 523 710 523 718 q 523 699 523 706 q 526 688 524 693 q 532 680 528 683 q 543 676 536 676 m 549 803 q 557 836 549 826 q 574 849 565 845 q 590 857 583 853 q 598 872 598 860 q 592 885 598 879 q 578 891 586 891 q 548 883 561 891 q 527 861 535 874 q 514 833 519 849 q 510 803 510 817 q 510 788 510 797 q 513 772 510 780 q 519 759 515 765 q 533 754 524 754 q 547 760 541 754 q 553 774 553 765 q 551 789 553 781 q 549 803 549 796 z "},"Z":{"ha":752,"x_min":16,"x_max":736,"o":"m 618 310 q 672 297 649 310 q 708 263 694 284 q 729 215 722 242 q 736 161 736 188 q 707 45 736 93 q 630 -34 677 -3 q 524 -79 583 -65 q 406 -93 465 -93 q 322 -91 367 -93 q 234 -80 278 -88 q 151 -56 191 -72 q 82 -15 112 -41 q 34 48 51 10 q 16 138 16 85 q 31 217 16 178 q 70 294 45 257 q 127 367 94 332 q 194 433 159 402 q 264 490 228 464 q 329 538 299 517 q 367 563 346 549 q 406 593 388 576 q 436 630 424 610 q 449 672 449 649 q 444 699 449 686 q 431 723 440 713 q 410 739 422 733 q 383 745 398 745 q 341 734 356 745 q 317 705 326 722 q 301 667 308 688 q 282 629 294 647 q 251 600 270 612 q 197 589 231 589 q 138 603 165 589 q 91 639 110 617 q 61 691 72 662 q 51 751 51 720 q 67 828 51 796 q 110 881 83 860 q 173 915 138 903 q 247 934 208 928 q 324 942 285 940 q 396 944 363 944 q 467 942 430 944 q 539 935 503 941 q 607 918 575 930 q 664 887 640 907 q 703 836 689 867 q 718 762 718 806 q 695 652 718 707 q 637 546 672 597 q 558 452 601 495 q 472 376 514 408 q 417 336 450 359 q 353 285 384 313 q 301 226 323 257 q 280 165 280 196 q 290 130 280 144 q 315 109 300 117 q 349 98 331 101 q 384 95 367 95 q 431 105 415 95 q 456 129 448 114 q 468 163 465 144 q 474 202 471 183 q 484 242 478 222 q 506 276 490 261 q 548 300 521 291 q 618 310 574 310 m 131 735 q 142 738 138 735 q 149 747 147 742 q 153 759 152 753 q 155 771 155 765 q 149 785 155 779 q 135 790 143 790 q 124 787 128 790 q 117 778 119 783 q 113 768 115 774 q 112 757 112 762 q 117 742 112 749 q 131 735 123 735 m 301 862 q 331 859 317 862 q 361 857 346 857 q 375 863 369 857 q 381 876 381 869 q 373 891 381 886 q 352 899 364 897 q 328 902 340 901 q 310 902 317 902 q 267 899 292 902 q 217 889 242 897 q 173 869 193 881 q 146 836 153 856 q 144 831 145 835 q 143 826 143 828 q 149 813 143 819 q 163 806 155 806 q 176 815 167 806 q 201 834 185 824 q 243 853 218 844 q 301 862 267 862 z "},"a":{"ha":797,"x_min":16,"x_max":782,"o":"m 644 566 q 648 463 644 515 q 664 359 653 410 q 692 260 674 308 q 738 167 710 211 q 768 107 755 138 q 782 42 782 77 q 767 -16 782 9 q 727 -59 751 -42 q 673 -85 703 -76 q 613 -94 642 -94 q 556 -81 581 -94 q 514 -47 531 -68 q 488 2 497 -26 q 479 60 479 30 q 480 96 479 74 q 479 143 480 118 q 474 193 478 168 q 462 238 470 218 q 439 271 453 258 q 403 284 425 284 q 353 261 371 284 q 326 207 335 239 q 315 142 317 176 q 312 85 313 108 q 304 15 310 48 q 282 -41 297 -17 q 239 -79 266 -65 q 168 -93 211 -93 q 109 -86 137 -93 q 60 -64 81 -79 q 28 -24 40 -49 q 16 35 16 1 q 24 93 16 65 q 44 149 33 122 q 88 256 67 201 q 123 367 108 310 q 147 480 138 423 q 156 596 156 538 q 153 654 156 625 q 149 712 149 683 q 168 813 149 769 q 220 885 187 856 q 300 929 253 915 q 401 944 346 944 q 585 887 519 944 q 650 708 650 830 q 647 637 650 672 q 644 566 644 601 m 235 608 q 229 621 235 616 q 215 626 222 626 q 201 621 207 626 q 196 608 196 615 l 196 583 q 202 569 196 575 q 216 564 208 564 q 230 569 224 564 q 235 583 235 575 l 235 608 m 217 672 q 232 678 226 672 q 238 693 238 684 q 242 740 238 717 q 256 783 246 763 q 281 819 265 803 q 321 844 297 835 q 332 851 327 847 q 338 863 338 856 q 332 877 338 871 q 318 884 326 884 q 270 865 292 884 q 232 818 248 846 q 206 761 215 791 q 197 708 197 731 q 198 697 197 703 q 200 685 198 690 q 206 676 201 679 q 217 672 210 672 m 403 487 q 429 495 419 487 q 445 516 439 503 q 453 542 451 528 q 455 569 455 556 q 452 596 455 578 q 444 632 450 614 q 429 663 438 649 q 408 676 420 676 q 385 661 395 676 q 369 627 376 647 q 360 588 363 608 q 357 559 357 569 q 359 535 357 548 q 366 511 360 522 q 380 494 371 501 q 403 487 389 487 z "},"b":{"ha":763,"x_min":39,"x_max":747,"o":"m 497 426 q 505 415 497 420 q 524 406 513 410 q 544 399 534 402 q 560 395 555 397 q 638 366 603 383 q 697 325 673 350 q 734 266 722 301 q 747 183 747 232 q 730 84 747 126 q 684 11 713 42 q 616 -39 655 -19 q 532 -70 576 -58 q 440 -86 488 -81 q 347 -90 393 -90 q 313 -90 330 -90 q 278 -88 295 -89 q 218 -85 247 -87 q 162 -80 188 -84 q 113 -66 135 -75 q 74 -40 90 -57 q 48 5 58 -22 q 39 71 39 31 q 43 114 39 93 q 51 156 47 135 q 68 269 62 213 q 74 385 74 326 q 69 473 74 429 q 59 560 65 517 q 48 648 53 604 q 43 736 43 692 q 58 823 43 788 q 99 882 73 858 q 159 917 124 905 q 232 936 193 930 q 311 943 271 942 q 391 944 352 944 q 510 930 453 944 q 611 886 567 917 q 682 808 656 856 q 708 689 708 759 q 699 604 708 641 q 668 539 689 567 q 616 490 648 511 q 540 453 585 469 q 529 449 536 451 q 515 443 522 447 q 502 436 508 440 q 497 426 497 432 m 144 564 q 158 569 152 564 q 163 583 163 575 q 163 596 163 588 q 159 610 162 603 q 152 622 157 617 q 140 626 148 626 q 126 620 132 626 q 120 607 120 615 q 121 593 120 601 q 125 579 122 585 q 132 568 127 573 q 144 564 137 564 m 152 692 q 152 722 152 708 q 154 750 152 736 q 161 777 156 764 q 177 804 167 791 q 196 818 183 812 q 221 831 208 825 q 244 844 234 838 q 253 856 253 850 q 247 870 253 864 q 233 876 240 876 q 180 861 203 876 q 142 822 157 846 q 118 771 126 799 q 110 717 110 743 q 111 703 110 710 q 113 689 111 695 q 120 677 115 682 q 133 672 124 672 q 146 678 140 672 q 152 692 152 684 m 372 706 q 338 703 353 706 q 313 694 323 701 q 297 675 302 688 q 291 640 291 662 q 293 614 291 624 q 300 598 295 604 q 316 590 306 592 q 341 588 326 588 q 375 592 354 588 q 414 603 395 596 q 447 624 433 611 q 461 653 461 636 q 452 680 461 669 q 430 695 443 690 q 400 703 416 701 q 372 706 385 706 m 344 128 q 383 133 360 128 q 429 146 407 137 q 466 169 451 155 q 482 203 482 183 q 467 235 482 222 q 432 258 453 249 q 390 271 412 267 q 353 276 368 276 q 319 270 332 276 q 298 253 306 264 q 288 227 290 242 q 285 193 285 212 q 287 163 285 175 q 296 143 290 151 q 314 132 302 135 q 344 128 326 128 z "},"c":{"ha":772,"x_min":15,"x_max":756,"o":"m 622 311 q 678 298 653 311 q 721 261 703 284 q 747 210 738 239 q 756 153 756 182 q 728 49 756 92 q 656 -24 700 5 q 557 -66 611 -52 q 451 -80 503 -80 q 372 -72 411 -80 q 297 -48 333 -63 q 226 -10 260 -32 q 164 38 192 12 q 96 120 124 75 q 50 215 68 165 q 24 318 32 265 q 15 424 15 371 q 25 528 15 476 q 54 629 34 580 q 122 748 79 691 q 218 849 164 805 q 338 919 273 893 q 472 946 402 946 q 524 943 496 946 q 581 935 552 941 q 636 919 609 929 q 683 892 663 908 q 716 851 703 875 q 728 797 728 828 q 717 739 728 765 q 686 696 706 714 q 641 669 667 678 q 583 660 615 660 q 555 663 569 660 q 526 668 540 665 q 499 674 513 672 q 470 677 485 677 q 402 664 432 677 q 350 627 372 650 q 312 574 328 604 q 286 511 296 544 q 272 443 276 478 q 267 378 267 409 q 269 326 267 351 q 279 277 272 301 q 300 233 286 254 q 338 196 314 213 q 371 177 353 185 q 408 170 388 170 q 453 181 435 170 q 486 207 472 191 q 512 241 500 222 q 539 275 524 259 q 573 301 553 290 q 622 311 592 311 m 156 631 q 166 635 161 631 q 175 646 172 640 q 182 659 179 652 q 184 670 184 665 q 178 684 184 678 q 164 690 172 690 q 153 686 158 690 q 144 676 148 682 q 138 663 140 669 q 136 651 136 656 q 142 638 136 644 q 156 631 147 631 m 224 730 q 240 740 233 730 q 284 785 259 763 q 336 825 308 807 q 395 853 365 842 q 456 864 426 864 q 470 870 465 864 q 476 884 476 876 q 470 898 476 892 q 456 903 464 903 q 415 897 439 903 q 366 881 392 891 q 315 856 341 870 q 267 826 289 842 q 229 793 245 810 q 206 759 213 776 q 205 754 206 758 q 203 749 203 751 q 210 735 203 741 q 224 730 216 730 z "},"d":{"ha":783,"x_min":39,"x_max":767,"o":"m 320 944 q 401 929 357 944 q 489 891 445 914 q 570 840 532 868 q 634 787 609 813 q 736 624 704 715 q 767 433 767 533 q 729 222 767 319 q 622 55 691 125 q 457 -55 553 -15 q 244 -94 360 -94 q 167 -87 204 -94 q 101 -64 130 -81 q 56 -16 73 -47 q 39 63 39 15 q 42 98 39 81 q 49 132 44 115 q 68 201 58 167 q 85 271 77 236 q 98 342 93 306 q 103 414 103 378 q 95 506 103 461 q 77 595 87 551 q 60 679 68 638 q 52 759 52 720 q 66 846 52 810 q 106 903 80 881 q 170 935 133 925 q 257 944 208 944 l 320 944 m 162 553 q 175 559 169 553 q 181 572 181 565 q 181 584 181 578 q 177 596 180 591 q 171 605 175 601 q 159 608 167 608 q 146 602 151 608 q 140 588 140 596 q 144 565 140 577 q 162 553 149 553 m 225 853 l 235 853 q 252 856 244 853 q 260 873 260 859 q 248 890 260 887 q 226 894 237 894 q 182 885 202 894 q 147 861 162 876 q 125 825 133 846 q 117 781 117 805 q 117 764 117 776 q 119 738 117 752 q 122 708 120 724 q 128 681 124 693 q 137 661 132 669 q 149 653 142 653 q 163 659 157 653 q 169 672 169 665 q 163 726 169 700 q 156 781 156 753 q 174 833 156 812 q 225 853 192 853 m 360 192 q 415 205 390 192 q 458 236 439 217 q 492 283 478 256 q 516 337 507 309 q 531 394 526 365 q 535 447 535 422 q 525 520 535 481 q 493 591 514 558 q 441 644 472 623 q 369 665 410 665 q 359 665 365 665 q 349 663 354 664 q 331 642 339 658 q 316 603 322 626 q 307 553 310 580 q 301 500 303 526 q 298 454 299 475 q 297 422 297 433 q 297 391 297 412 q 300 344 298 369 q 307 292 302 319 q 318 243 311 265 q 335 207 325 221 q 360 192 346 192 z "},"e":{"ha":678,"x_min":39,"x_max":663,"o":"m 552 156 q 597 148 577 156 q 632 124 617 139 q 655 87 647 108 q 663 42 663 66 q 641 -18 663 6 q 585 -57 619 -42 q 507 -80 550 -72 q 422 -91 465 -87 q 342 -94 379 -94 q 280 -94 304 -94 q 232 -94 256 -94 q 183 -92 208 -94 q 125 -77 151 -89 q 79 -45 98 -65 q 49 2 60 -25 q 39 63 39 29 q 42 98 39 81 q 49 132 44 115 q 68 202 59 167 q 86 272 78 237 q 99 343 94 307 q 103 415 103 378 q 92 538 103 478 q 66 659 81 599 q 57 706 60 683 q 53 754 53 730 q 66 831 53 800 q 101 883 79 863 q 154 915 124 903 q 218 932 184 926 q 288 938 251 937 q 358 939 324 939 q 412 938 381 939 q 478 934 444 938 q 545 922 512 930 q 605 898 578 913 q 647 861 631 883 q 663 805 663 838 q 653 753 663 777 q 625 710 643 728 q 584 682 608 692 q 531 672 560 672 q 487 679 508 672 q 444 694 465 686 q 402 710 423 703 q 358 717 381 717 q 330 701 340 717 q 317 661 321 684 q 313 615 313 638 q 313 580 313 592 q 313 561 313 573 q 316 536 313 549 q 324 516 319 524 q 340 507 330 507 q 361 512 349 507 q 386 523 372 517 q 416 534 400 529 q 449 540 432 540 q 534 515 502 540 q 567 435 567 491 q 559 388 567 410 q 536 350 551 366 q 501 325 522 334 q 454 315 480 315 q 422 320 438 315 q 390 332 406 326 q 359 343 374 338 q 327 348 343 348 q 311 335 317 348 q 302 305 305 322 q 299 271 299 288 q 299 247 299 254 q 299 208 299 232 q 305 159 300 183 q 322 118 310 135 q 354 101 333 101 q 405 109 381 101 q 453 128 429 118 q 501 148 477 139 q 552 156 526 156 m 163 566 q 176 572 170 566 q 183 585 183 577 q 182 597 183 590 q 178 611 181 604 q 172 622 176 617 q 160 626 167 626 q 145 621 152 626 q 139 606 139 615 q 140 594 139 601 q 144 581 141 587 q 151 570 147 574 q 163 566 156 566 m 284 861 q 273 880 284 877 q 249 883 262 883 q 199 877 223 883 q 157 857 175 870 q 127 822 138 843 q 117 772 117 801 q 118 748 117 765 q 124 714 120 731 q 134 684 127 697 q 149 671 140 671 q 163 677 157 671 q 169 691 169 683 q 163 731 169 711 q 156 771 156 750 q 165 808 156 794 q 189 830 174 822 q 221 841 203 838 q 258 844 239 844 q 276 847 267 844 q 284 861 284 849 z "},"f":{"ha":695,"x_min":38,"x_max":680,"o":"m 386 947 q 443 947 411 947 q 507 942 474 946 q 571 930 540 938 q 626 905 602 921 q 665 865 650 890 q 680 805 680 841 q 669 753 680 777 q 641 712 659 730 q 600 684 624 694 q 548 674 576 674 q 501 682 524 674 q 456 700 478 690 q 411 717 433 709 q 364 724 388 724 q 339 715 348 724 q 326 693 331 706 q 321 666 322 681 q 320 640 320 651 q 321 610 320 628 q 323 572 322 592 q 328 536 325 553 q 338 511 332 519 l 341 510 q 361 515 349 510 q 386 525 372 519 q 416 535 400 531 q 449 540 432 540 q 534 515 501 540 q 567 434 567 490 q 558 388 567 409 q 535 350 550 366 q 499 325 520 334 q 453 315 478 315 q 424 319 438 315 q 396 328 410 324 q 368 338 382 333 q 340 342 355 342 q 326 338 333 342 q 324 325 324 333 q 331 261 324 292 q 347 198 338 229 q 362 134 355 166 q 369 69 369 103 q 356 -3 369 27 q 318 -53 342 -34 q 261 -82 294 -73 q 188 -92 227 -92 q 126 -80 153 -92 q 79 -48 99 -69 q 49 0 60 -28 q 38 62 38 28 q 41 97 38 80 q 49 132 44 115 q 68 201 58 167 q 85 271 77 236 q 98 342 93 306 q 103 415 103 378 q 91 538 103 477 q 65 659 80 598 q 56 706 60 683 q 52 754 52 730 q 67 833 52 801 q 108 887 82 865 q 167 920 133 908 q 238 939 201 933 q 313 946 274 944 q 386 947 351 947 m 161 566 q 175 572 169 566 q 181 585 181 577 q 180 597 181 590 q 177 611 179 604 q 170 622 174 617 q 159 626 166 626 q 144 621 151 626 q 138 606 138 615 q 138 594 138 601 q 142 581 139 587 q 149 570 144 574 q 161 566 153 566 m 281 861 q 269 880 281 877 q 246 883 258 883 q 196 877 220 883 q 154 858 172 871 q 125 824 136 844 q 114 774 114 803 q 115 749 114 766 q 120 714 117 732 q 130 683 124 697 q 146 670 136 670 q 159 675 153 670 q 165 688 165 681 q 159 731 165 710 q 153 773 153 751 q 163 809 153 795 q 186 831 172 823 q 218 841 200 838 q 254 844 236 844 q 272 847 264 844 q 281 861 281 849 z "},"g":{"ha":807,"x_min":16,"x_max":792,"o":"m 572 508 q 661 490 621 508 q 731 441 702 472 q 776 368 760 410 q 792 278 792 326 q 765 144 792 209 q 693 30 739 79 q 584 -50 647 -20 q 451 -80 522 -80 q 372 -72 411 -80 q 297 -48 333 -63 q 226 -10 260 -32 q 165 38 193 11 q 96 121 124 76 q 50 216 68 166 q 24 319 33 266 q 16 426 16 372 q 25 529 16 478 q 54 629 35 581 q 122 748 79 691 q 218 849 164 805 q 338 919 273 893 q 472 946 402 946 q 524 943 496 946 q 581 935 553 941 q 636 918 610 929 q 683 891 663 908 q 716 851 703 874 q 728 796 728 828 q 717 739 728 764 q 686 696 706 713 q 640 669 667 678 q 583 660 614 660 q 555 663 569 660 q 527 668 541 665 q 499 674 513 672 q 470 677 485 677 q 403 664 433 677 q 351 627 373 650 q 313 575 328 605 q 287 512 297 545 q 273 445 277 479 q 268 380 268 410 q 274 299 268 340 q 297 224 280 258 q 344 169 313 190 q 424 147 374 147 q 469 153 447 147 q 510 171 492 159 q 540 202 528 183 q 551 248 551 222 q 541 274 551 265 q 517 288 531 282 q 486 298 503 293 q 455 311 469 302 q 431 335 440 319 q 421 378 421 351 q 433 435 421 410 q 467 475 446 459 q 515 500 488 492 q 572 508 542 508 m 186 647 q 193 658 190 653 q 196 670 196 664 q 190 684 196 678 q 176 690 184 690 q 165 686 170 690 q 156 676 160 682 q 150 663 152 669 q 147 651 147 656 q 153 637 147 643 q 167 631 159 631 q 180 636 174 631 q 186 647 185 640 m 235 730 q 244 733 240 730 q 252 740 249 735 q 296 784 272 763 q 348 822 320 806 q 406 848 376 838 q 468 857 437 857 q 482 863 476 857 q 488 877 488 869 q 482 891 488 885 q 468 897 476 897 q 428 891 451 897 q 378 876 404 885 q 327 853 353 866 q 278 824 301 840 q 240 792 256 809 q 217 759 224 776 q 216 754 217 758 q 215 749 215 751 q 221 735 215 741 q 235 730 226 730 z "},"h":{"ha":882,"x_min":39,"x_max":844,"o":"m 844 766 q 834 674 844 719 q 813 584 824 629 q 791 494 801 539 q 781 401 781 449 q 785 336 781 368 q 797 272 790 303 q 811 208 803 240 q 828 144 819 176 q 834 114 831 129 q 836 83 836 99 q 823 16 836 48 q 786 -40 810 -16 q 732 -78 763 -64 q 665 -92 701 -92 q 602 -81 631 -92 q 553 -49 574 -69 q 520 0 532 -28 q 508 63 508 28 q 516 133 508 98 q 534 204 524 169 q 553 275 544 240 q 568 345 563 310 l 565 351 q 503 320 537 330 q 435 310 469 310 q 373 319 403 310 q 317 345 342 327 l 316 340 q 324 275 316 306 q 341 211 332 243 q 359 148 351 180 q 367 83 367 117 q 353 16 367 48 q 317 -40 340 -16 q 263 -78 294 -64 q 195 -92 231 -92 q 133 -81 162 -92 q 83 -49 104 -69 q 51 0 63 -28 q 39 63 39 28 q 42 98 39 81 q 49 132 44 115 q 68 201 59 167 q 85 271 78 236 q 98 342 93 306 q 103 414 103 378 q 91 538 103 477 q 65 659 79 598 q 56 708 60 683 q 52 759 52 733 q 63 833 52 799 q 95 891 74 867 q 148 930 117 916 q 222 944 180 944 q 290 930 261 944 q 337 891 318 915 q 365 834 356 866 q 374 767 374 802 q 368 701 374 733 q 353 636 362 668 q 336 572 345 603 q 322 507 328 540 l 325 501 q 386 523 354 516 q 450 531 417 531 q 508 524 479 531 q 564 506 538 518 l 565 511 q 553 573 560 542 q 539 634 546 603 q 527 696 532 665 q 522 759 522 727 q 532 833 522 799 q 565 891 543 867 q 618 930 586 916 q 692 944 649 944 q 759 929 731 944 q 806 890 788 915 q 834 834 825 866 q 844 766 844 801 m 142 569 q 155 575 149 569 q 160 588 160 580 q 159 601 160 594 q 156 615 158 608 q 149 625 153 621 q 136 629 144 629 q 123 623 128 629 q 117 608 117 617 q 118 596 117 603 q 121 583 119 589 q 128 572 124 576 q 140 568 133 568 l 142 569 m 140 749 q 141 778 140 762 q 147 809 142 794 q 159 836 151 824 q 180 854 167 849 q 195 874 195 860 q 189 887 195 881 q 175 893 183 893 q 136 875 151 893 q 114 832 122 857 q 103 779 106 806 q 100 735 100 752 q 100 718 100 728 q 103 696 101 707 q 110 678 106 685 q 124 670 115 670 q 138 675 132 670 q 144 688 144 681 q 142 719 144 704 q 140 749 140 734 m 607 588 q 620 594 615 588 q 626 608 626 600 q 626 620 626 613 q 623 634 625 628 q 615 645 620 640 q 603 649 610 649 q 589 643 595 649 q 583 628 583 636 q 584 616 583 623 q 588 603 585 609 q 595 592 590 597 q 607 588 600 588 m 609 750 q 610 778 609 763 q 616 809 612 794 q 628 836 620 824 q 649 854 636 849 q 665 874 665 860 q 658 887 665 881 q 644 893 652 893 q 606 875 620 893 q 583 832 591 857 q 572 779 575 806 q 569 735 569 752 q 570 718 569 728 q 573 696 570 707 q 580 678 575 685 q 594 670 585 670 q 608 675 601 670 q 614 688 614 681 q 611 719 614 704 q 609 750 609 734 z "},"i":{"ha":410,"x_min":38,"x_max":372,"o":"m 372 769 q 363 678 372 723 q 345 588 355 633 q 326 498 335 543 q 318 406 318 453 q 331 274 318 339 q 357 144 343 209 q 363 111 360 128 q 365 78 365 94 q 352 8 365 39 q 316 -46 340 -24 q 261 -80 293 -68 q 191 -92 229 -92 q 129 -80 157 -92 q 81 -47 101 -67 q 49 3 60 -26 q 38 65 38 32 q 41 99 38 83 q 48 132 44 116 q 81 269 65 201 q 97 410 97 338 q 90 499 97 455 q 75 588 83 544 q 59 676 66 632 q 52 766 52 721 q 61 838 52 806 q 90 894 70 871 q 139 931 109 918 q 212 944 169 944 q 283 931 253 944 q 332 895 313 918 q 362 840 352 872 q 372 769 372 808 m 144 572 q 158 577 151 572 q 165 590 165 582 q 164 603 165 596 q 161 617 163 610 q 153 627 158 623 q 141 632 149 632 q 127 626 133 632 q 122 613 122 621 q 123 601 122 608 q 126 587 124 594 q 133 576 128 581 q 144 572 137 572 m 144 749 q 145 777 144 761 q 151 808 147 793 q 163 836 155 824 q 184 854 171 849 q 195 861 191 857 q 199 874 199 865 q 193 887 199 881 q 179 893 187 893 q 141 875 156 893 q 118 832 126 857 q 107 781 110 807 q 104 737 104 754 q 105 719 104 731 q 107 697 105 708 q 115 678 110 686 q 129 670 120 670 q 143 675 137 670 q 149 688 149 681 q 146 718 149 703 q 144 749 144 733 z "},"j":{"ha":638,"x_min":8,"x_max":599,"o":"m 599 711 q 593 627 599 669 q 580 544 587 586 q 568 461 574 503 q 562 378 562 420 q 565 318 562 348 q 573 259 569 289 q 580 200 576 230 q 583 141 583 171 q 561 35 583 80 q 500 -38 538 -9 q 411 -80 462 -67 q 305 -94 360 -94 q 208 -81 254 -94 q 123 -43 162 -69 q 57 20 85 -18 q 15 108 28 58 q 9 131 11 119 q 8 153 8 142 q 18 202 8 179 q 45 244 28 226 q 85 272 62 262 q 135 283 108 283 q 186 270 168 283 q 215 240 205 258 q 230 200 226 222 q 238 161 234 179 q 249 130 242 142 q 272 118 256 118 q 308 139 293 118 q 334 193 323 160 q 351 266 344 226 q 360 344 357 306 q 365 413 364 382 q 366 460 366 444 q 365 493 366 471 q 361 541 364 515 q 356 597 359 568 q 347 650 352 625 q 335 693 342 675 q 319 717 328 711 l 313 717 q 296 709 306 717 q 273 690 286 701 q 241 672 259 680 q 198 663 222 663 q 154 672 174 663 q 119 695 134 681 q 96 731 104 710 q 88 774 88 751 q 109 851 88 819 q 165 901 131 882 q 239 929 198 920 q 317 938 279 938 q 423 926 372 938 q 513 887 474 914 q 575 817 552 860 q 599 711 599 774 m 156 765 q 166 768 161 765 q 176 776 172 771 q 183 786 181 781 q 186 796 186 792 q 182 808 186 803 l 181 809 q 167 815 176 815 q 157 812 162 815 q 147 805 151 809 q 140 794 142 800 q 137 784 137 789 q 143 770 137 776 q 156 765 149 765 m 447 818 q 460 824 455 818 q 466 838 466 830 q 457 855 466 848 q 433 869 447 863 q 400 879 418 875 q 366 886 383 883 q 334 890 349 889 q 313 892 320 892 q 282 889 303 892 q 241 880 262 886 q 206 865 221 874 q 190 842 190 856 q 196 828 190 834 q 209 822 201 822 q 222 827 211 822 q 247 837 232 831 q 278 848 261 843 q 313 852 296 852 q 353 847 331 852 q 394 835 374 842 q 427 823 413 828 q 447 818 442 818 z "},"k":{"ha":806,"x_min":38,"x_max":799,"o":"m 390 428 q 405 393 390 408 q 440 368 419 378 q 482 352 460 358 q 520 341 505 346 q 570 325 545 333 q 619 306 595 317 q 666 283 643 296 q 708 252 688 269 q 743 216 726 235 q 772 175 759 197 q 791 130 784 153 q 799 80 799 106 q 785 15 799 46 q 748 -40 771 -17 q 693 -78 724 -64 q 628 -92 663 -92 q 567 -80 592 -92 q 523 -48 542 -68 q 491 -1 504 -28 q 466 54 478 25 q 444 112 455 83 q 418 167 433 141 q 385 213 404 192 q 339 244 366 233 q 322 248 331 248 q 298 235 306 248 q 289 208 289 222 q 293 165 289 186 q 302 122 297 143 q 312 79 308 101 q 316 35 316 57 q 305 -19 316 4 q 274 -58 293 -42 q 228 -82 254 -74 q 174 -90 203 -90 q 75 -56 112 -90 q 38 42 38 -21 q 44 106 38 75 q 57 169 51 138 q 78 288 69 228 q 88 408 88 347 q 80 502 88 456 q 64 595 72 549 q 47 689 55 642 q 40 783 40 735 q 52 855 40 824 q 86 905 64 885 q 141 934 109 925 q 213 944 174 944 q 262 932 240 944 q 298 901 283 920 q 320 857 313 881 q 328 808 328 833 q 323 762 328 785 q 314 717 319 740 q 304 672 308 694 q 299 627 299 650 q 300 614 299 621 q 303 601 301 607 q 311 591 306 594 q 324 587 316 587 q 361 613 343 587 q 398 677 378 638 q 439 760 417 715 q 489 843 461 805 q 552 908 517 882 q 633 933 588 933 q 695 918 666 933 q 745 879 724 903 q 779 824 767 855 q 792 761 792 793 q 779 692 792 723 q 744 636 766 661 q 693 590 722 610 q 632 555 664 570 q 566 527 599 539 q 502 506 533 515 q 469 497 488 502 q 434 484 451 492 q 406 465 418 476 q 390 435 394 453 l 390 428 m 642 879 q 608 869 628 879 q 569 844 588 859 q 537 810 550 828 q 524 777 524 792 q 530 763 524 769 q 544 757 536 757 q 561 770 552 757 q 582 798 571 783 q 608 827 594 814 q 642 840 623 840 q 661 842 652 840 q 670 858 670 844 q 661 875 670 870 q 642 879 653 879 m 501 736 q 484 728 492 736 q 477 711 477 720 q 483 698 477 703 q 497 692 490 692 q 514 700 506 692 q 521 717 521 708 q 515 730 521 724 q 501 736 508 736 m 136 572 q 149 578 144 573 q 154 591 154 583 q 153 604 154 597 q 150 617 153 611 q 143 628 147 624 q 131 633 138 633 q 117 626 122 633 q 111 612 111 620 q 112 599 111 606 q 115 586 113 592 q 123 576 118 580 q 135 572 127 572 l 136 572 m 130 763 q 131 788 130 774 q 135 815 131 801 q 145 839 138 828 q 163 854 151 849 q 174 861 170 857 q 178 874 178 865 q 172 887 178 881 q 158 893 166 893 q 123 878 137 893 q 102 841 110 863 q 93 795 95 819 q 90 756 90 772 q 91 736 90 750 q 93 707 91 722 q 101 682 96 693 q 117 672 107 672 q 130 677 124 672 q 136 690 136 683 q 133 727 136 708 q 130 763 130 745 z "},"l":{"ha":684,"x_min":39,"x_max":676,"o":"m 557 197 q 602 189 581 197 q 640 166 624 181 q 667 131 657 151 q 676 86 676 110 q 657 8 676 40 q 606 -43 638 -24 q 533 -72 574 -62 q 450 -86 492 -82 q 366 -90 407 -90 q 292 -90 325 -90 q 204 -86 249 -90 q 122 -66 159 -82 q 62 -17 85 -49 q 39 71 39 15 q 42 106 39 89 q 49 140 44 123 q 68 209 58 175 q 85 278 77 244 q 98 348 93 313 q 103 419 103 383 q 95 504 103 462 q 78 588 88 547 q 61 672 69 630 q 53 756 53 714 q 63 829 53 795 q 94 889 74 863 q 146 929 115 915 q 219 944 177 944 q 289 927 258 944 q 340 883 319 910 q 371 822 360 856 q 381 751 381 787 q 370 659 381 704 q 347 569 360 614 q 321 480 333 524 q 307 388 309 435 q 304 314 305 351 q 303 239 303 276 q 303 220 303 233 q 305 193 303 208 q 308 162 306 178 q 315 134 310 147 q 325 113 319 121 q 341 104 331 104 q 371 111 356 104 q 402 128 386 118 q 436 150 419 138 q 472 173 453 163 q 512 190 491 183 q 557 197 533 197 m 149 576 q 164 582 158 576 q 169 597 169 588 q 168 609 169 602 q 165 622 167 616 q 157 633 162 628 q 146 637 153 637 q 132 631 138 637 q 126 617 126 625 q 127 605 126 612 q 130 591 128 597 q 138 580 133 585 q 149 576 142 576 m 150 749 q 151 777 150 761 q 157 808 153 793 q 169 836 161 824 q 190 854 177 849 q 201 861 197 857 q 206 874 206 865 q 199 887 206 881 q 185 893 193 893 q 147 875 162 893 q 124 832 132 857 q 113 781 116 807 q 110 737 110 754 q 111 719 110 731 q 114 697 111 708 q 121 678 116 686 q 135 670 126 670 q 149 675 143 670 q 155 688 155 681 q 152 718 155 703 q 150 749 150 733 z "},"m":{"ha":1086,"x_min":23,"x_max":1063,"o":"m 952 571 q 975 350 952 460 q 1039 138 998 241 q 1056 88 1049 113 q 1063 35 1063 62 q 1051 -22 1063 2 q 1021 -62 1040 -46 q 975 -86 1001 -78 q 918 -94 949 -94 q 840 -77 872 -94 q 789 -31 808 -60 q 760 35 769 -3 q 751 113 751 72 q 757 253 751 183 q 763 392 763 322 q 763 417 763 400 q 761 455 763 434 q 758 499 760 476 q 750 540 755 522 q 738 570 745 558 q 719 582 730 582 q 701 576 707 582 q 691 560 694 569 q 688 540 688 551 q 688 521 688 530 q 693 438 688 479 q 699 354 699 397 q 690 283 699 318 q 661 220 681 248 q 613 176 642 193 q 542 159 583 159 q 473 176 502 159 q 424 221 443 193 q 397 284 406 249 q 388 354 388 319 q 392 437 388 396 q 397 519 397 478 q 397 537 397 527 q 394 557 397 547 q 386 573 392 566 q 369 579 380 579 q 348 569 356 579 q 333 545 339 560 q 325 511 328 530 q 321 475 322 493 q 319 442 319 458 q 319 419 319 427 q 321 340 319 379 q 327 261 324 301 q 332 183 330 222 q 335 104 335 144 q 325 28 335 65 q 295 -35 315 -8 q 243 -78 275 -62 q 167 -94 211 -94 q 111 -86 138 -94 q 65 -62 85 -78 q 34 -23 46 -47 q 23 34 23 1 q 30 87 23 61 q 47 138 38 113 q 111 351 88 240 q 133 572 133 462 q 129 653 133 613 q 124 733 124 693 q 133 814 124 776 q 162 881 142 852 q 215 926 182 909 q 295 943 247 943 q 403 920 359 943 q 474 859 447 897 q 514 769 501 820 q 526 662 526 718 q 523 597 526 629 q 520 532 520 565 q 520 517 520 526 q 523 497 521 507 q 530 481 525 488 q 542 474 534 474 q 555 482 551 474 q 562 503 560 491 q 564 526 564 515 q 565 543 565 538 q 563 605 565 574 q 560 665 560 635 q 572 774 560 724 q 609 863 583 825 q 679 922 635 900 q 788 943 723 943 q 870 926 837 943 q 923 881 903 910 q 953 814 944 853 q 962 733 962 776 q 957 652 962 692 q 952 571 952 612 m 203 580 q 220 588 216 580 q 224 607 224 597 q 220 630 224 619 q 203 640 217 640 q 186 632 190 640 q 183 613 183 623 q 186 591 183 602 q 203 580 190 580 m 213 749 q 214 777 213 761 q 219 808 215 793 q 232 836 224 824 q 253 854 240 849 q 264 861 260 857 q 268 874 268 865 q 262 887 268 881 q 248 893 256 893 q 209 875 224 893 q 186 832 194 857 q 176 781 178 807 q 173 737 173 754 q 173 719 173 731 q 176 697 174 708 q 184 678 178 686 q 198 670 189 670 q 211 675 206 670 q 217 688 217 681 q 215 718 217 703 q 213 749 213 733 m 658 656 q 656 678 658 667 q 638 690 653 690 q 623 682 627 690 q 618 665 618 674 q 622 644 618 653 q 639 635 626 635 q 652 642 647 635 q 658 656 658 648 m 642 730 q 657 735 652 730 q 663 749 661 740 q 682 804 669 785 q 708 833 694 823 q 731 849 721 844 q 741 863 741 855 q 735 877 741 871 q 721 883 729 883 q 683 869 701 883 q 652 834 665 855 q 631 790 638 813 q 623 750 623 767 q 628 736 623 742 q 642 730 634 730 z "},"n":{"ha":910,"x_min":38,"x_max":872,"o":"m 722 944 q 834 907 797 944 q 872 795 872 869 q 869 756 872 775 q 863 716 867 736 q 844 559 850 638 q 839 401 839 481 q 842 292 839 347 q 851 184 845 238 q 853 156 852 170 q 854 128 854 142 q 841 37 854 78 q 800 -33 827 -4 q 733 -78 773 -62 q 642 -94 694 -94 q 551 -81 589 -94 q 489 -42 513 -68 q 451 23 464 -16 q 435 112 438 61 q 430 178 433 138 q 419 265 426 219 q 404 360 413 312 q 382 451 395 408 q 353 527 369 494 q 315 576 336 560 q 299 582 308 582 q 274 572 283 582 q 258 548 264 562 q 251 517 253 533 q 249 490 249 501 q 260 386 249 438 q 286 285 272 335 q 312 191 300 236 q 324 106 324 145 q 316 33 324 69 q 292 -31 309 -3 q 245 -76 274 -59 q 172 -93 215 -93 q 71 -56 104 -93 q 38 47 38 -19 q 43 99 38 73 q 53 151 47 125 q 73 265 67 208 q 78 381 78 322 q 71 523 78 452 q 53 665 64 593 q 48 700 50 683 q 47 735 47 717 q 63 827 47 788 q 108 892 78 866 q 178 931 137 918 q 269 944 219 944 q 376 922 334 944 q 442 861 417 899 q 479 773 467 823 q 497 668 491 724 q 504 610 500 646 q 514 534 508 575 q 528 451 520 494 q 548 370 537 408 q 574 303 559 332 q 606 263 588 275 q 614 259 610 260 q 622 257 617 257 q 645 265 636 257 q 658 284 653 272 q 665 308 663 295 q 666 332 666 321 q 652 440 666 386 q 623 545 639 493 q 593 650 606 598 q 579 752 579 701 q 585 824 579 789 q 607 885 591 858 q 651 928 623 912 q 722 944 678 944 m 144 572 q 159 578 153 572 q 165 592 165 584 q 164 605 165 598 q 161 618 163 612 q 155 628 159 624 q 144 633 151 633 q 129 627 135 633 q 123 613 123 622 q 123 600 123 607 q 126 587 124 593 q 132 576 128 581 q 144 572 137 572 m 149 741 q 150 767 149 754 q 156 791 151 780 q 169 812 160 803 q 191 826 177 821 q 206 846 206 832 q 200 860 206 854 q 186 865 194 865 q 148 851 163 865 q 125 816 133 837 q 113 772 116 795 q 109 731 109 749 q 109 715 109 725 q 112 695 110 705 q 119 677 115 685 q 133 670 124 670 q 147 675 141 670 q 153 689 153 681 q 151 715 153 702 q 149 741 149 728 m 669 642 q 683 648 678 642 q 689 663 689 654 q 683 683 689 672 q 667 693 678 693 q 653 687 659 693 q 647 673 647 681 q 652 653 647 663 q 669 642 658 642 m 669 769 q 674 805 669 788 q 686 835 679 822 q 698 857 692 849 q 703 868 703 866 q 697 882 703 876 q 684 888 692 888 q 659 873 669 888 q 642 839 649 858 q 632 799 635 819 q 629 769 629 779 q 630 753 629 763 q 632 736 630 744 q 639 721 634 727 q 653 715 644 715 q 667 721 660 715 q 673 734 673 726 q 671 752 673 744 q 669 769 669 760 z "},"o":{"ha":739,"x_min":38,"x_max":700,"o":"m 640 417 q 649 350 640 383 q 667 285 657 317 q 685 219 677 252 q 694 152 694 187 q 665 30 694 78 q 590 -44 637 -17 q 483 -82 543 -72 q 361 -92 424 -92 q 245 -82 302 -92 q 144 -44 189 -71 q 72 29 99 -17 q 44 144 44 75 q 53 211 44 178 q 71 275 61 243 q 89 339 81 307 q 97 406 97 372 q 90 449 97 428 q 76 490 83 470 q 49 586 60 540 q 38 685 38 633 q 69 808 38 759 q 149 888 99 858 q 260 931 198 918 q 384 944 322 944 q 491 930 435 944 q 593 888 547 916 q 670 815 640 859 q 700 711 700 771 q 691 636 700 673 q 670 564 681 600 q 650 492 659 528 q 640 417 640 456 m 128 572 q 142 578 136 572 q 148 592 148 583 q 143 615 148 603 q 125 626 138 626 q 111 620 117 626 q 106 607 106 615 q 110 584 106 596 q 128 572 115 572 m 139 689 q 142 737 139 715 q 162 780 144 759 q 179 792 167 787 q 203 803 191 798 q 223 815 215 809 q 232 828 232 821 q 225 842 232 837 q 211 847 219 847 q 164 834 185 847 q 128 801 143 821 q 106 757 114 781 q 98 708 98 732 q 98 695 98 702 q 101 683 99 689 q 107 674 103 678 q 119 670 111 670 q 133 676 127 670 q 139 689 139 681 m 458 226 q 452 273 458 250 q 440 318 447 296 q 427 364 433 341 q 422 411 422 388 q 428 465 422 439 q 442 518 435 492 q 457 570 450 544 q 463 624 463 596 q 375 711 463 711 q 303 687 329 711 q 276 616 276 663 q 283 567 276 591 q 296 519 289 543 q 309 471 303 495 q 315 422 315 447 q 307 369 315 394 q 290 319 299 344 q 273 269 281 294 q 265 219 265 244 q 272 185 265 199 q 293 160 280 170 q 322 146 306 151 q 356 141 338 141 q 394 146 376 141 q 427 162 413 151 q 450 188 441 172 q 458 226 458 204 z "},"p":{"ha":767,"x_min":39,"x_max":759,"o":"m 759 666 q 741 551 759 606 q 690 453 724 495 q 606 385 656 410 q 491 360 556 360 q 449 363 470 360 q 407 365 428 365 q 360 361 382 365 q 322 346 338 357 q 297 317 306 335 q 288 269 288 298 q 293 209 288 239 q 305 150 298 179 q 316 90 311 120 q 322 30 322 60 q 310 -24 322 -1 q 278 -61 298 -47 q 232 -83 258 -76 q 178 -90 206 -90 q 121 -82 147 -90 q 77 -57 96 -74 q 49 -16 59 -40 q 39 41 39 9 q 45 105 39 74 q 58 169 51 137 q 79 288 69 228 q 88 408 88 347 q 82 490 88 449 q 69 571 76 531 q 56 652 62 611 q 49 733 49 692 q 65 822 49 785 q 108 881 81 858 q 171 917 135 904 q 247 936 207 930 q 330 943 288 942 q 410 944 372 944 q 537 927 474 944 q 649 877 599 911 q 728 791 698 843 q 759 666 759 738 m 144 572 q 157 578 151 572 q 163 592 163 584 q 162 605 163 598 q 158 618 161 612 q 151 628 156 624 q 140 633 147 633 q 126 627 131 633 q 120 613 120 621 q 121 600 120 607 q 124 586 122 592 q 131 576 126 580 q 144 572 136 572 m 147 742 q 148 768 147 755 q 154 792 149 781 q 167 812 158 803 q 189 826 175 821 q 200 834 195 829 q 204 846 204 838 q 198 860 204 854 q 183 865 191 865 q 145 851 160 865 q 122 816 131 837 q 110 773 114 796 q 107 733 107 750 q 107 716 107 726 q 110 695 108 706 q 117 677 113 685 q 131 670 122 670 q 145 676 139 670 q 151 689 151 681 q 149 715 151 702 q 147 742 147 728 m 356 581 q 387 584 367 581 q 425 595 406 588 q 457 613 443 602 q 470 640 470 624 q 460 664 470 655 q 434 679 449 674 q 403 686 419 684 q 376 688 388 688 q 345 686 359 688 q 322 678 331 685 q 306 660 312 672 q 301 628 301 648 q 304 603 301 613 q 314 589 307 594 q 331 583 321 584 q 356 581 341 581 z "},"q":{"ha":732,"x_min":38,"x_max":693,"o":"m 687 169 q 655 37 687 93 q 551 -50 622 -19 q 589 -71 569 -61 q 625 -93 609 -81 q 652 -123 642 -106 q 663 -166 663 -140 q 656 -201 663 -184 q 637 -232 649 -219 q 608 -254 625 -246 q 573 -262 592 -262 q 525 -247 544 -262 q 490 -210 506 -233 q 462 -171 474 -189 q 438 -139 450 -153 q 409 -109 425 -124 q 369 -81 393 -95 q 251 -71 309 -81 q 147 -35 193 -61 q 73 37 101 -9 q 45 154 45 83 q 53 219 45 188 q 71 283 61 251 q 89 347 81 315 q 97 413 97 379 q 90 455 97 435 q 76 496 83 476 q 49 591 59 544 q 38 690 38 638 q 68 811 38 763 q 148 890 99 860 q 258 932 197 919 q 381 945 319 945 q 451 939 415 945 q 522 920 487 933 q 588 889 556 908 q 642 845 619 870 q 679 787 665 819 q 693 715 693 754 q 684 641 693 677 q 664 569 674 605 q 643 498 653 534 q 634 424 634 462 q 642 359 634 391 q 660 297 651 328 q 678 234 670 265 q 687 169 687 202 m 127 577 q 141 583 135 577 q 147 596 147 588 q 146 607 147 601 q 143 618 145 613 q 136 627 140 624 q 125 631 132 631 q 111 625 117 631 q 105 612 105 619 q 109 589 105 601 q 127 577 114 577 m 138 693 q 141 740 138 718 q 160 783 143 763 q 178 795 167 790 q 201 806 190 801 q 222 817 213 811 q 231 831 231 823 q 225 843 231 838 q 213 849 220 849 q 165 837 186 849 q 129 806 144 825 q 106 762 114 786 q 98 713 98 738 q 98 701 98 708 q 101 688 99 694 q 107 678 103 682 q 119 674 111 674 q 132 680 126 674 q 138 693 138 685 m 454 234 q 448 281 454 258 q 436 326 442 303 q 423 372 429 349 q 417 418 417 394 q 424 471 417 445 q 438 523 431 497 q 452 575 446 549 q 459 628 459 601 q 437 693 459 672 q 372 715 415 715 q 300 691 326 715 q 274 621 274 667 q 280 572 274 596 q 293 524 286 548 q 307 477 301 501 q 313 428 313 453 q 305 376 313 401 q 288 326 297 351 q 270 277 278 302 q 263 228 263 253 q 270 194 263 209 q 291 170 278 180 q 320 155 303 160 q 353 150 336 150 q 391 155 372 150 q 423 171 409 160 q 445 197 437 181 q 454 234 454 213 z "},"r":{"ha":812,"x_min":39,"x_max":796,"o":"m 469 393 q 483 372 469 382 q 520 350 497 361 q 573 326 543 339 q 633 298 602 314 q 693 262 663 282 q 745 217 722 242 q 782 160 768 192 q 796 88 796 128 q 783 20 796 53 q 749 -37 771 -12 q 696 -77 726 -62 q 628 -92 665 -92 q 551 -72 581 -92 q 501 -18 522 -51 q 467 53 481 14 q 436 131 452 93 q 397 199 419 168 q 339 244 375 230 q 322 248 331 248 q 307 244 313 248 q 298 233 301 240 q 292 219 294 226 q 290 204 290 211 q 295 158 290 181 q 306 112 300 135 q 316 66 311 89 q 321 19 321 42 q 308 -30 321 -10 q 274 -64 294 -51 q 228 -84 253 -77 q 178 -90 203 -90 q 122 -82 147 -90 q 77 -56 96 -73 q 49 -15 59 -40 q 39 42 39 10 q 45 106 39 74 q 58 169 51 138 q 79 288 70 228 q 88 408 88 347 q 82 490 88 449 q 69 571 76 531 q 56 652 62 611 q 49 733 49 692 q 65 822 49 785 q 108 881 81 858 q 171 917 135 904 q 247 936 207 930 q 330 943 288 942 q 410 944 372 944 q 538 927 475 944 q 649 877 600 911 q 728 790 698 843 q 758 665 758 738 q 742 574 758 610 q 697 511 726 537 q 630 467 669 485 q 546 433 591 449 q 528 427 541 431 q 502 417 515 423 q 480 406 490 412 q 469 393 469 399 m 144 572 q 159 576 152 572 q 166 590 166 581 q 165 602 166 596 q 161 615 164 609 q 155 625 159 621 q 143 629 150 629 q 130 624 135 629 q 124 610 124 618 q 125 599 124 606 q 128 586 126 592 q 134 576 130 581 q 144 572 138 572 m 151 742 q 152 768 151 755 q 158 792 153 781 q 171 813 163 803 q 193 826 179 822 q 208 846 208 832 q 202 860 208 854 q 188 865 195 865 q 150 851 165 865 q 127 816 135 837 q 115 773 118 796 q 111 733 111 750 q 111 716 111 726 q 114 695 112 706 q 122 677 117 685 q 135 670 126 670 q 149 676 143 670 q 155 689 155 681 q 153 715 155 702 q 151 742 151 728 m 356 581 q 387 584 367 581 q 425 595 406 588 q 457 613 443 602 q 470 640 470 624 q 460 664 470 655 q 434 679 449 674 q 403 686 419 684 q 376 688 388 688 q 345 686 359 688 q 321 678 331 684 q 306 660 311 672 q 301 628 301 648 q 304 603 301 613 q 314 589 307 594 q 331 583 321 584 q 356 581 341 581 z "},"s":{"ha":696,"x_min":15,"x_max":680,"o":"m 290 672 q 303 630 290 649 q 334 593 315 610 q 373 563 352 576 q 410 538 394 549 q 500 473 452 510 q 587 392 547 436 q 653 297 627 348 q 680 191 680 247 q 665 109 680 147 q 625 40 651 71 q 566 -17 600 8 q 493 -58 532 -42 q 414 -84 455 -75 q 333 -93 373 -93 q 215 -78 272 -93 q 113 -32 157 -63 q 42 49 69 0 q 15 167 15 99 q 25 227 15 200 q 52 273 34 254 q 95 303 69 292 q 155 313 122 313 q 214 302 189 313 q 255 271 238 291 q 279 224 271 251 q 287 166 287 197 q 305 116 287 131 q 356 100 323 100 q 391 107 376 100 q 416 126 406 114 q 432 154 426 138 q 438 189 438 170 q 420 243 438 217 q 374 295 403 269 q 309 347 345 321 q 234 402 272 374 q 159 462 195 431 q 93 529 122 493 q 47 606 65 565 q 30 694 30 647 q 55 802 30 756 q 122 880 81 849 q 216 928 163 912 q 324 944 269 944 q 404 941 363 944 q 484 927 445 938 q 556 897 522 917 q 615 842 590 876 q 650 776 636 813 q 663 702 663 739 q 653 651 663 674 q 624 610 642 627 q 582 583 606 592 q 531 573 558 573 q 490 581 508 573 q 458 602 471 588 q 437 634 444 615 q 430 674 430 652 q 428 706 430 692 q 421 727 427 719 q 403 741 415 736 q 372 745 392 745 q 341 740 356 745 q 315 725 326 735 q 297 702 303 716 q 290 672 290 689 m 105 642 q 118 649 114 642 q 125 664 123 655 q 127 682 127 672 q 127 697 127 691 q 121 711 127 706 q 107 717 115 717 q 95 712 99 717 q 88 701 90 708 q 85 688 85 695 q 84 675 84 681 q 88 653 84 665 q 105 642 92 642 m 134 750 q 146 757 140 750 q 158 774 151 764 q 174 797 165 785 q 199 819 184 808 q 235 836 214 829 q 287 843 256 843 q 302 842 293 843 q 319 840 311 840 q 338 844 331 840 q 346 862 346 849 q 340 874 346 869 q 327 880 335 878 q 311 882 319 882 q 298 883 303 883 q 242 877 272 883 q 188 859 213 872 q 143 826 163 847 q 116 777 124 806 q 115 769 115 773 q 120 756 115 762 q 134 750 126 750 z "},"t":{"ha":883,"x_min":8,"x_max":875,"o":"m 701 944 q 765 935 734 944 q 821 906 797 925 q 860 859 845 887 q 875 795 875 831 q 865 741 875 765 q 837 699 855 716 q 795 672 819 681 q 740 663 770 663 q 707 665 724 663 q 674 672 690 668 q 641 678 658 675 q 608 681 625 681 q 586 679 597 681 q 566 672 576 677 q 555 655 560 668 q 546 622 550 641 q 539 582 542 603 q 535 540 537 560 q 532 503 533 519 q 531 479 531 488 q 544 357 531 417 q 572 237 557 297 q 591 163 581 200 q 601 88 601 126 q 588 19 601 52 q 553 -38 576 -13 q 499 -78 531 -63 q 431 -92 468 -92 q 367 -81 396 -92 q 319 -48 339 -69 q 288 3 299 -26 q 276 66 276 32 q 289 170 276 118 q 317 275 302 222 q 345 383 333 328 q 358 494 358 438 q 358 517 358 501 q 356 552 357 533 q 352 592 354 571 q 346 631 349 613 q 338 661 342 649 q 328 678 333 674 q 308 685 319 683 q 288 688 298 688 q 228 681 257 688 q 168 674 199 674 q 105 683 134 674 q 54 709 75 691 q 20 753 33 726 q 8 817 8 780 q 23 879 8 853 q 61 920 38 904 q 116 943 85 935 q 178 950 146 950 q 242 946 210 950 q 305 938 274 942 q 368 929 337 933 q 432 925 400 925 q 500 928 466 925 q 567 935 533 931 q 634 941 600 938 q 701 944 667 944 m 73 810 q 89 818 81 810 q 97 835 97 826 q 91 849 97 842 q 77 855 85 855 q 61 847 67 855 q 55 830 55 839 q 60 816 55 823 q 73 810 65 810 m 335 846 q 349 852 342 846 q 355 866 355 858 q 345 881 355 874 q 319 893 335 888 q 285 902 304 898 q 249 908 267 906 q 217 911 231 910 q 196 913 203 913 q 172 911 187 913 q 142 905 156 909 q 116 892 127 900 q 106 873 106 885 q 111 859 106 865 q 125 853 117 853 q 135 856 128 853 q 152 863 142 859 q 173 870 161 867 q 196 873 184 873 q 233 869 214 873 q 269 859 251 865 q 304 850 288 854 q 335 846 321 846 z "},"u":{"ha":867,"x_min":31,"x_max":836,"o":"m 690 944 q 753 933 726 944 q 799 901 781 922 q 827 851 817 880 q 836 788 836 822 q 824 703 836 744 q 797 621 812 663 q 770 536 783 580 q 758 443 758 493 q 763 366 758 404 q 773 289 767 328 q 783 213 778 251 q 788 135 788 174 q 773 50 788 87 q 733 -12 758 14 q 674 -54 708 -37 q 601 -80 640 -70 q 522 -92 563 -89 q 442 -96 481 -96 q 376 -95 409 -96 q 310 -94 344 -94 q 209 -79 256 -94 q 130 -36 163 -65 q 78 36 97 -7 q 59 138 59 80 q 60 161 59 149 q 62 184 60 172 q 77 339 69 262 q 85 494 85 415 q 82 581 85 538 q 62 667 78 625 q 40 733 50 700 q 31 801 31 765 q 42 862 31 835 q 73 907 53 889 q 120 935 92 925 q 181 944 148 944 q 245 934 215 944 q 300 905 276 924 q 338 857 324 885 q 352 793 352 829 q 349 757 352 775 q 340 722 345 740 q 303 566 317 644 q 290 406 290 488 q 294 327 290 369 q 312 251 298 286 q 354 193 326 216 q 431 171 382 171 q 505 191 478 171 q 544 242 531 210 q 561 311 558 273 q 564 385 564 349 q 514 724 564 559 q 505 757 508 740 q 501 790 501 773 q 518 857 501 828 q 561 906 535 886 q 622 935 588 925 q 690 944 656 944 m 85 794 q 87 765 85 785 q 95 724 90 744 q 108 686 100 703 q 126 670 115 670 q 141 676 135 670 q 147 690 147 682 q 143 716 147 703 q 135 741 140 728 q 128 767 131 754 q 124 794 124 781 q 129 821 124 813 q 139 834 133 829 q 148 842 144 838 q 152 853 152 845 q 146 868 152 862 q 133 874 140 874 q 110 865 119 874 q 96 844 101 856 q 88 818 90 832 q 85 794 85 804 m 154 572 q 168 578 162 572 q 174 592 174 584 q 172 604 174 597 q 167 617 170 610 q 158 627 163 623 q 147 631 153 631 q 134 625 140 631 q 128 611 128 619 q 130 599 128 606 q 135 586 131 592 q 143 576 138 580 q 154 572 148 572 m 605 640 q 619 646 613 640 q 625 660 625 652 q 619 679 625 669 q 602 688 613 688 q 588 682 594 688 q 583 667 583 676 q 589 649 583 658 q 605 640 594 640 m 594 783 q 602 818 594 807 q 619 834 610 828 q 637 844 629 840 q 645 857 645 848 q 639 872 645 867 q 624 878 633 878 q 594 868 607 878 q 573 845 581 859 q 559 815 564 831 q 554 784 554 798 q 556 766 554 777 q 560 744 557 755 q 569 725 563 733 q 585 717 576 717 q 598 723 592 717 q 604 736 604 728 q 599 760 604 749 q 594 783 594 772 z "},"v":{"ha":798,"x_min":16,"x_max":782,"o":"m 635 944 q 691 935 665 944 q 738 910 717 926 q 770 869 758 893 q 782 814 782 845 q 774 756 782 784 q 753 701 765 728 q 711 593 732 647 q 676 482 691 538 q 651 369 660 426 q 642 253 642 313 q 645 195 642 224 q 649 137 649 166 q 630 36 649 80 q 578 -36 611 -7 q 499 -79 544 -65 q 399 -94 453 -94 q 293 -80 340 -94 q 214 -38 247 -67 q 165 35 182 -9 q 148 140 148 79 q 151 211 148 176 q 153 282 153 247 q 149 386 153 334 q 134 489 144 438 q 106 589 124 540 q 60 683 88 638 q 30 743 43 713 q 16 808 16 773 q 31 865 16 840 q 70 908 46 890 q 123 935 94 926 q 182 944 153 944 q 248 923 221 944 q 292 868 274 902 q 319 793 310 835 q 333 708 328 751 q 338 627 338 666 q 339 561 339 588 q 337 482 339 522 q 335 403 335 442 q 335 373 335 394 q 337 327 335 353 q 341 275 338 302 q 351 226 344 248 q 366 189 357 203 q 390 174 376 174 q 417 192 406 174 q 436 238 428 210 q 447 300 443 266 q 453 365 451 333 q 456 423 456 397 q 458 460 457 449 q 459 516 458 483 q 461 588 460 549 q 467 667 463 626 q 480 748 472 708 q 501 823 488 788 q 532 886 513 859 q 576 928 550 913 q 635 944 601 944 m 124 670 q 138 676 132 670 q 144 690 144 682 q 138 706 144 694 q 126 732 133 717 q 113 764 119 747 q 108 795 108 781 q 112 816 108 809 q 122 828 117 824 q 131 838 127 833 q 135 849 135 842 q 130 864 135 858 q 116 869 124 869 q 96 861 105 869 q 81 842 87 853 q 71 818 74 831 q 68 796 68 806 q 73 766 68 787 q 85 724 77 745 q 103 686 93 703 q 124 670 113 670 m 160 572 q 174 578 168 572 q 180 592 180 584 q 178 604 180 597 q 173 617 176 610 q 165 627 169 623 q 153 631 160 631 q 140 625 146 631 q 133 611 133 619 q 135 599 133 606 q 140 586 137 592 q 149 576 144 580 q 160 572 154 572 m 522 647 q 537 653 531 647 q 543 669 543 660 q 537 682 543 676 q 524 688 531 688 q 509 681 515 688 q 502 667 502 675 q 508 653 502 659 q 522 647 514 647 m 541 724 q 553 728 549 724 q 560 740 558 733 q 570 774 566 758 q 580 805 574 790 q 595 833 586 819 q 621 860 605 847 q 627 867 624 864 q 630 876 630 871 q 624 891 630 885 q 610 897 618 897 q 589 888 600 897 q 569 864 578 878 q 550 833 559 850 q 535 798 542 815 q 525 766 529 781 q 522 743 522 751 q 527 730 522 735 q 541 724 533 724 z "},"w":{"ha":1070,"x_min":15,"x_max":1055,"o":"m 911 944 q 968 936 942 944 q 1014 912 994 928 q 1044 872 1033 896 q 1055 815 1055 848 q 1048 763 1055 789 q 1031 713 1041 738 q 968 500 991 609 q 944 279 944 391 q 949 198 944 238 q 954 117 954 158 q 945 37 954 75 q 916 -30 936 -1 q 863 -76 896 -59 q 782 -93 830 -93 q 676 -71 720 -93 q 605 -10 633 -49 q 565 78 578 28 q 553 184 553 128 q 555 251 553 218 q 558 319 558 285 q 557 334 558 324 q 555 353 557 343 q 548 369 553 363 q 535 376 544 376 q 523 368 527 376 q 516 347 518 359 q 514 324 514 335 q 513 307 513 313 q 516 248 513 277 q 518 188 518 218 q 507 78 518 130 q 470 -11 497 27 q 401 -71 444 -49 q 290 -93 357 -93 q 208 -76 242 -93 q 155 -31 175 -60 q 125 36 134 -3 q 116 117 116 74 q 121 198 116 158 q 126 279 126 238 q 102 500 126 389 q 40 713 79 611 q 23 763 30 738 q 15 816 15 789 q 26 873 15 849 q 57 912 38 897 q 103 936 77 928 q 160 944 130 944 q 238 927 206 944 q 289 881 269 910 q 318 815 309 853 q 326 737 326 778 q 320 598 326 667 q 315 460 315 529 q 315 435 315 452 q 316 396 315 417 q 320 352 317 374 q 328 311 323 329 q 340 280 333 292 q 358 268 347 268 q 377 274 371 268 q 386 289 383 280 q 390 308 390 298 q 390 327 390 319 q 385 411 390 369 q 379 496 379 453 q 388 567 379 532 q 417 630 397 602 q 466 674 436 657 q 535 691 495 691 q 605 674 576 691 q 654 629 635 657 q 682 566 673 601 q 691 496 691 531 q 686 414 691 454 q 681 333 681 374 q 681 315 681 326 q 684 294 681 304 q 692 278 686 285 q 709 271 698 271 q 730 280 722 271 q 744 305 739 290 q 753 339 750 320 q 758 375 756 357 q 759 408 759 392 q 760 431 760 423 q 757 508 760 470 q 752 585 755 547 q 746 662 749 624 q 744 738 744 700 q 753 817 744 779 q 782 882 762 854 q 833 927 801 910 q 911 944 865 944 m 63 803 q 67 772 63 793 q 79 729 72 751 q 97 691 87 708 q 119 675 107 675 q 133 681 127 675 q 139 694 139 687 q 133 709 139 698 q 121 735 128 720 q 108 768 114 751 q 103 802 103 785 q 108 827 103 819 q 119 838 113 834 q 130 845 125 842 q 135 858 135 849 q 129 872 135 866 q 116 878 124 878 q 93 870 103 878 q 77 851 83 863 q 67 827 70 840 q 63 803 63 814 m 143 592 q 157 598 151 592 q 163 611 163 603 q 158 631 163 621 q 141 642 153 642 q 127 636 133 642 q 121 622 121 631 q 126 602 121 612 q 143 592 131 592 m 817 641 q 831 647 825 641 q 837 661 837 653 q 832 680 837 671 q 816 690 828 690 q 802 684 808 690 q 796 670 796 678 q 800 651 796 660 q 817 641 805 641 m 836 741 q 837 776 836 759 q 842 807 838 792 q 858 832 847 822 q 889 848 869 843 q 901 854 896 849 q 906 866 906 858 q 885 888 906 888 q 844 875 861 888 q 816 842 827 862 q 801 800 806 823 q 796 758 796 778 q 796 747 796 753 q 799 735 797 740 q 805 726 801 730 q 817 723 809 723 q 830 728 824 723 q 836 741 836 733 z "},"x":{"ha":805,"x_min":24,"x_max":782,"o":"m 608 418 q 628 354 618 385 q 646 289 638 323 q 664 242 652 264 q 691 201 676 221 q 722 162 706 181 q 751 122 738 142 q 773 78 765 101 q 781 28 781 56 q 768 -26 781 -3 q 732 -64 754 -49 q 683 -86 710 -79 q 627 -93 656 -93 q 566 -84 594 -93 q 518 -56 538 -74 q 487 -12 498 -38 q 476 49 476 15 q 478 81 476 65 q 484 111 481 96 q 490 141 488 126 q 492 172 492 156 q 487 209 492 189 q 472 247 482 229 q 445 276 461 265 q 410 288 430 288 q 364 279 383 288 q 333 253 345 269 q 315 216 321 238 q 310 171 310 195 q 312 138 310 154 q 318 106 315 122 q 323 74 321 90 q 326 42 326 58 q 313 -21 326 5 q 279 -62 301 -47 q 228 -85 257 -78 q 165 -92 199 -92 q 108 -85 134 -92 q 63 -61 82 -77 q 34 -22 44 -46 q 24 36 24 3 q 40 109 24 77 q 78 171 56 141 q 122 231 100 201 q 156 298 144 261 q 166 324 158 304 q 181 365 173 344 q 194 405 188 387 q 201 424 201 422 q 199 430 201 427 q 177 495 188 464 q 159 563 167 527 q 141 609 153 588 q 114 651 128 631 q 83 690 99 671 q 53 730 67 710 q 32 774 40 751 q 24 824 24 797 q 38 879 24 856 q 73 917 51 902 q 123 938 95 931 q 178 944 151 944 q 240 935 212 944 q 288 908 267 926 q 319 863 308 890 q 330 802 330 837 q 327 771 330 787 q 322 741 325 756 q 316 710 319 726 q 313 679 313 695 q 319 642 313 663 q 335 605 324 622 q 360 575 345 587 q 395 563 376 563 q 441 573 422 563 q 473 598 460 582 q 490 635 485 614 q 496 681 496 657 q 493 714 496 698 q 488 746 491 730 q 482 778 485 762 q 479 810 479 794 q 492 873 479 847 q 527 914 505 899 q 578 937 549 930 q 640 944 608 944 q 698 936 672 944 q 742 913 724 928 q 772 873 761 897 q 782 815 782 849 q 766 742 782 774 q 727 680 749 710 q 683 620 706 651 q 649 553 660 590 q 627 490 638 522 q 606 427 617 459 l 608 418 m 153 690 q 166 697 160 690 q 172 710 172 703 q 164 726 172 717 q 147 747 156 735 q 129 775 137 759 q 121 809 121 790 q 124 826 121 820 q 132 836 128 832 q 140 844 137 840 q 144 855 144 848 q 138 868 144 863 q 124 874 132 874 q 105 867 113 874 q 92 849 97 860 q 83 827 86 839 q 81 807 81 815 q 87 776 81 796 q 103 737 93 756 q 127 704 114 718 q 153 690 140 690 m 192 626 q 205 633 199 626 q 211 647 211 639 q 209 656 211 651 q 203 665 206 660 q 195 672 199 669 q 186 674 190 674 q 172 668 178 674 q 166 655 166 663 q 174 636 166 645 q 192 626 181 626 m 560 676 q 575 682 569 676 q 581 697 581 688 q 580 708 581 702 q 577 719 579 714 q 571 727 575 724 q 560 730 567 730 q 546 724 552 730 q 540 711 540 719 q 543 688 540 700 q 560 676 547 676 m 566 803 q 569 828 566 819 q 578 842 573 837 q 590 849 584 847 q 602 854 597 851 q 611 860 608 856 q 615 872 615 864 q 609 885 615 879 q 595 891 603 891 q 566 883 578 891 q 544 862 553 874 q 531 834 535 849 q 526 804 526 819 q 527 790 526 798 q 530 773 527 781 q 536 760 532 765 q 549 754 541 754 q 564 760 558 754 q 569 774 569 765 q 568 789 569 781 q 566 803 566 796 z "},"y":{"ha":787,"x_min":16,"x_max":772,"o":"m 630 944 q 687 936 661 944 q 732 914 713 929 q 761 874 751 898 q 772 816 772 849 q 763 762 772 787 q 742 715 755 737 q 715 672 730 692 q 686 628 699 651 q 663 582 673 606 q 651 530 653 558 q 644 466 649 499 q 631 402 640 433 q 603 344 621 371 q 557 299 586 317 q 535 290 546 292 q 517 283 525 287 q 505 272 510 279 q 500 248 500 264 q 506 192 500 219 q 520 138 513 165 q 535 85 528 112 q 541 32 541 59 q 527 -22 541 1 q 491 -61 513 -45 q 441 -85 469 -77 q 387 -94 414 -94 q 336 -87 361 -94 q 291 -67 311 -81 q 259 -32 272 -53 q 247 18 247 -11 q 254 76 247 47 q 270 134 262 105 q 287 192 279 163 q 294 251 294 221 q 293 262 294 258 q 286 269 292 266 q 257 284 272 277 q 228 301 242 291 q 178 346 197 322 q 147 399 158 371 q 131 460 136 428 q 124 526 126 492 q 113 589 122 563 q 91 638 103 616 q 66 678 79 659 q 42 717 53 697 q 23 761 31 738 q 16 817 16 785 q 28 875 16 851 q 62 914 41 899 q 110 937 83 930 q 168 944 138 944 q 230 935 201 944 q 278 908 258 926 q 309 863 298 890 q 320 802 320 837 q 316 759 320 781 q 308 716 313 738 q 300 674 303 695 q 296 631 296 653 q 300 589 296 608 q 315 555 304 569 q 342 532 325 540 q 385 524 359 524 q 435 534 415 524 q 467 561 455 544 q 485 602 480 578 q 490 651 490 625 q 487 691 490 672 q 480 731 484 711 q 473 770 476 751 q 469 810 469 790 q 482 873 469 847 q 517 914 495 898 q 568 937 539 930 q 630 944 597 944 m 64 807 q 70 776 64 796 q 86 737 76 756 q 109 704 97 718 q 135 690 122 690 q 150 696 144 690 q 156 710 156 702 q 148 726 156 717 q 130 747 140 735 q 111 775 119 759 q 103 809 103 790 q 107 826 103 820 q 115 836 111 832 q 123 844 119 840 q 127 855 127 848 q 121 868 127 863 q 107 874 115 874 q 89 867 97 874 q 75 849 81 860 q 67 827 69 838 q 64 807 64 815 m 174 626 q 188 632 182 626 q 194 646 194 638 q 188 660 194 654 q 181 670 186 666 q 169 674 175 674 q 155 668 161 674 q 149 654 149 663 q 157 635 149 644 q 174 626 165 626 m 543 676 q 557 682 551 676 q 563 696 563 688 q 560 719 563 708 q 542 730 557 730 q 529 724 535 730 q 523 710 523 718 q 523 699 523 706 q 526 688 524 693 q 532 680 528 683 q 543 676 536 676 m 549 803 q 557 836 549 826 q 574 849 565 845 q 590 857 583 853 q 598 872 598 860 q 592 885 598 879 q 578 891 586 891 q 548 883 561 891 q 527 861 535 874 q 514 833 519 849 q 510 803 510 817 q 510 788 510 797 q 513 772 510 780 q 519 759 515 765 q 533 754 524 754 q 547 760 541 754 q 553 774 553 765 q 551 789 553 781 q 549 803 549 796 z "},"z":{"ha":752,"x_min":16,"x_max":736,"o":"m 618 310 q 672 297 649 310 q 708 263 694 284 q 729 215 722 242 q 736 161 736 188 q 707 45 736 93 q 630 -34 677 -3 q 524 -79 583 -65 q 406 -93 465 -93 q 322 -91 367 -93 q 234 -80 278 -88 q 151 -56 191 -72 q 82 -15 112 -41 q 34 48 51 10 q 16 138 16 85 q 31 217 16 178 q 70 294 45 257 q 127 367 94 332 q 194 433 159 402 q 264 490 228 464 q 329 538 299 517 q 367 563 346 549 q 406 593 388 576 q 436 630 424 610 q 449 672 449 649 q 444 699 449 686 q 431 723 440 713 q 410 739 422 733 q 383 745 398 745 q 341 734 356 745 q 317 705 326 722 q 301 667 308 688 q 282 629 294 647 q 251 600 270 612 q 197 589 231 589 q 138 603 165 589 q 91 639 110 617 q 61 691 72 662 q 51 751 51 720 q 67 828 51 796 q 110 881 83 860 q 173 915 138 903 q 247 934 208 928 q 324 942 285 940 q 396 944 363 944 q 467 942 430 944 q 539 935 503 941 q 607 918 575 930 q 664 887 640 907 q 703 836 689 867 q 718 762 718 806 q 695 652 718 707 q 637 546 672 597 q 558 452 601 495 q 472 376 514 408 q 417 336 450 359 q 353 285 384 313 q 301 226 323 257 q 280 165 280 196 q 290 130 280 144 q 315 109 300 117 q 349 98 331 101 q 384 95 367 95 q 431 105 415 95 q 456 129 448 114 q 468 163 465 144 q 474 202 471 183 q 484 242 478 222 q 506 276 490 261 q 548 300 521 291 q 618 310 574 310 m 131 735 q 142 738 138 735 q 149 747 147 742 q 153 759 152 753 q 155 771 155 765 q 149 785 155 779 q 135 790 143 790 q 124 787 128 790 q 117 778 119 783 q 113 768 115 774 q 112 757 112 762 q 117 742 112 749 q 131 735 123 735 m 301 862 q 331 859 317 862 q 361 857 346 857 q 375 863 369 857 q 381 876 381 869 q 373 891 381 886 q 352 899 364 897 q 328 902 340 901 q 310 902 317 902 q 267 899 292 902 q 217 889 242 897 q 173 869 193 881 q 146 836 153 856 q 144 831 145 835 q 143 826 143 828 q 149 813 143 819 q 163 806 155 806 q 176 815 167 806 q 201 834 185 824 q 243 853 218 844 q 301 862 267 862 z "}}}
